%TF.GenerationSoftware,KiCad,Pcbnew,10.0.3*%
%TF.CreationDate,2026-07-22T15:09:18-04:00*%
%TF.ProjectId,ESP32_FlightController,45535033-325f-4466-9c69-676874436f6e,rev?*%
%TF.SameCoordinates,Original*%
%TF.FileFunction,Copper,L4,Bot*%
%TF.FilePolarity,Positive*%
%FSLAX46Y46*%
G04 Gerber Fmt 4.6, Leading zero omitted, Abs format (unit mm)*
G04 Created by KiCad (PCBNEW 10.0.3) date 2026-07-22 15:09:18*
%MOMM*%
%LPD*%
G01*
G04 APERTURE LIST*
G04 Aperture macros list*
%AMRoundRect*
0 Rectangle with rounded corners*
0 $1 Rounding radius*
0 $2 $3 $4 $5 $6 $7 $8 $9 X,Y pos of 4 corners*
0 Add a 4 corners polygon primitive as box body*
4,1,4,$2,$3,$4,$5,$6,$7,$8,$9,$2,$3,0*
0 Add four circle primitives for the rounded corners*
1,1,$1+$1,$2,$3*
1,1,$1+$1,$4,$5*
1,1,$1+$1,$6,$7*
1,1,$1+$1,$8,$9*
0 Add four rect primitives between the rounded corners*
20,1,$1+$1,$2,$3,$4,$5,0*
20,1,$1+$1,$4,$5,$6,$7,0*
20,1,$1+$1,$6,$7,$8,$9,0*
20,1,$1+$1,$8,$9,$2,$3,0*%
G04 Aperture macros list end*
%TA.AperFunction,ComponentPad*%
%ADD10R,1.000000X1.000000*%
%TD*%
%TA.AperFunction,ComponentPad*%
%ADD11C,1.000000*%
%TD*%
%TA.AperFunction,ComponentPad*%
%ADD12O,1.000000X2.100000*%
%TD*%
%TA.AperFunction,ComponentPad*%
%ADD13O,1.000000X1.800000*%
%TD*%
%TA.AperFunction,ComponentPad*%
%ADD14RoundRect,0.250000X-1.325000X-1.325000X1.325000X-1.325000X1.325000X1.325000X-1.325000X1.325000X0*%
%TD*%
%TA.AperFunction,ComponentPad*%
%ADD15C,3.150000*%
%TD*%
%TA.AperFunction,SMDPad,CuDef*%
%ADD16R,2.950000X4.500000*%
%TD*%
%TA.AperFunction,SMDPad,CuDef*%
%ADD17RoundRect,0.225000X0.225000X0.250000X-0.225000X0.250000X-0.225000X-0.250000X0.225000X-0.250000X0*%
%TD*%
%TA.AperFunction,SMDPad,CuDef*%
%ADD18RoundRect,0.200000X0.275000X-0.200000X0.275000X0.200000X-0.275000X0.200000X-0.275000X-0.200000X0*%
%TD*%
%TA.AperFunction,SMDPad,CuDef*%
%ADD19RoundRect,0.250000X0.325000X0.650000X-0.325000X0.650000X-0.325000X-0.650000X0.325000X-0.650000X0*%
%TD*%
%TA.AperFunction,ViaPad*%
%ADD20C,0.600000*%
%TD*%
%TA.AperFunction,ViaPad*%
%ADD21C,0.300000*%
%TD*%
%TA.AperFunction,ViaPad*%
%ADD22C,0.500000*%
%TD*%
%TA.AperFunction,Conductor*%
%ADD23C,0.200000*%
%TD*%
%TA.AperFunction,Conductor*%
%ADD24C,0.400000*%
%TD*%
%TA.AperFunction,Conductor*%
%ADD25C,0.800000*%
%TD*%
%TA.AperFunction,Conductor*%
%ADD26C,0.600000*%
%TD*%
G04 APERTURE END LIST*
D10*
%TO.P,J7,1,Pin_1_1*%
%TO.N,/UART0_TX*%
X51500000Y-57000000D03*
D11*
%TO.P,J7,2,Pin_2_2*%
%TO.N,/UART0_RX*%
X52770000Y-57000000D03*
%TO.P,J7,3,Pin_3_3*%
%TO.N,/ESP_EN*%
X54040000Y-57000000D03*
%TO.P,J7,4,Pin_4_4*%
%TO.N,/BOOT_IO0*%
X55310000Y-57000000D03*
%TO.P,J7,5,Pin_5_5*%
%TO.N,+3V3*%
X56580000Y-57000000D03*
%TO.P,J7,6,Pin_6_6*%
%TO.N,GND*%
X57850000Y-57000000D03*
%TD*%
D10*
%TO.P,J8,1,Pin_1_1*%
%TO.N,/JTAG_TDI*%
X12000000Y-57000000D03*
D11*
%TO.P,J8,2,Pin_2_2*%
%TO.N,/JTAG_TCK*%
X13270000Y-57000000D03*
%TO.P,J8,3,Pin_3_3*%
%TO.N,/JTAG_TMS*%
X14540000Y-57000000D03*
%TO.P,J8,4,Pin_4_4*%
%TO.N,/JTAG_TDO*%
X15810000Y-57000000D03*
%TO.P,J8,5,Pin_5_5*%
%TO.N,+3V3*%
X17080000Y-57000000D03*
%TO.P,J8,6,Pin_6_6*%
%TO.N,GND*%
X18350000Y-57000000D03*
%TD*%
D12*
%TO.P,J9,SH,SHIELD_SH*%
%TO.N,/USB_SHIELD*%
X38680000Y-54295000D03*
D13*
X38680000Y-58475000D03*
D12*
X47320000Y-54295000D03*
D13*
X47320000Y-58475000D03*
%TD*%
D14*
%TO.P,J1,1,Pin_1_1*%
%TO.N,/VBAT_RAW*%
X3000000Y-5000000D03*
D15*
%TO.P,J1,2,Pin_2_2*%
%TO.N,GND*%
X9000000Y-5000000D03*
%TD*%
D16*
%TO.P,U3,9,GNDPAD_9*%
%TO.N,GND*%
X12000000Y-38000000D03*
%TD*%
D17*
%TO.P,C15,1*%
%TO.N,/+5V_BUCK*%
X39775000Y-42000000D03*
%TO.P,C15,2*%
%TO.N,GND*%
X38225000Y-42000000D03*
%TD*%
D18*
%TO.P,R20,1*%
%TO.N,/USB_SHIELD*%
X51000000Y-43825000D03*
%TO.P,R20,2*%
%TO.N,GND*%
X51000000Y-42175000D03*
%TD*%
D19*
%TO.P,C18,1*%
%TO.N,/USB_SHIELD*%
X57975000Y-47000000D03*
%TO.P,C18,2*%
%TO.N,GND*%
X55025000Y-47000000D03*
%TD*%
D18*
%TO.P,R18,1*%
%TO.N,Net-(Q1-B)*%
X53000000Y-44825000D03*
%TO.P,R18,2*%
%TO.N,/AUTO_DTR*%
X53000000Y-43175000D03*
%TD*%
D20*
%TO.N,/UART0_TX*%
X51510800Y-45587000D03*
X40842000Y-7125700D03*
D21*
X45826600Y-33549999D03*
X45826600Y-34850000D03*
D20*
%TO.N,/UART0_RX*%
X52160800Y-46038100D03*
X39980000Y-11852600D03*
X40139300Y-40972800D03*
D21*
X40545700Y-33549999D03*
X40545700Y-34850000D03*
D20*
%TO.N,/ESP_EN*%
X41604900Y-56785800D03*
X43981800Y-31263100D03*
X47722700Y-31722500D03*
D21*
X42849900Y-34850000D03*
X42849900Y-33549999D03*
D20*
%TO.N,/BOOT_IO0*%
X56291000Y-45970100D03*
X45274900Y-38437900D03*
%TO.N,+3V3*%
X48369400Y-51502500D03*
X27765900Y-29412400D03*
X44233600Y-23773800D03*
X41921800Y-35917400D03*
X35000000Y-35394100D03*
X52937100Y-29747400D03*
X39820600Y-33100200D03*
X40835900Y-50483200D03*
X39419100Y-24131600D03*
X36118700Y-30785800D03*
X6782200Y-28457000D03*
X36603600Y-23982000D03*
D22*
X33000000Y-31900000D03*
D20*
X27397300Y-27778500D03*
X52370300Y-52353100D03*
D22*
X28800000Y-32500000D03*
D20*
X22454800Y-3565000D03*
X48307700Y-55211300D03*
X40745600Y-37663300D03*
D22*
%TO.N,GND*%
X15900000Y-38800000D03*
X15900000Y-38200000D03*
X54700000Y-51700000D03*
D20*
%TO.N,Net-(Q2-B)*%
X50339900Y-38553500D03*
X43468800Y-36030700D03*
%TO.N,/GPS_TX*%
X6752300Y-23334500D03*
X39985700Y-15256400D03*
%TO.N,/GPS_RX*%
X5650000Y-25353500D03*
X41617100Y-20858600D03*
%TO.N,/I2C_SCL*%
X35852500Y-4235200D03*
X35000000Y-31118200D03*
X50789000Y-30394900D03*
%TO.N,/I2C_SDA*%
X56587300Y-30046000D03*
X35083500Y-14716600D03*
X35000000Y-27091800D03*
%TO.N,/USB_VBUS*%
X56974800Y-51468500D03*
X35708000Y-52881700D03*
X49950400Y-39238400D03*
X50990200Y-52310600D03*
%TO.N,/BAT_ADC*%
X22454800Y-8360500D03*
X24337200Y-34912500D03*
X13178000Y-32785000D03*
%TO.N,/JTAG_TDI*%
X17659000Y-26436000D03*
%TO.N,/JTAG_TCK*%
X25507700Y-23301600D03*
%TO.N,/JTAG_TMS*%
X18595300Y-19089700D03*
%TO.N,/JTAG_TDO*%
X34450000Y-21389500D03*
X19173400Y-27012400D03*
%TO.N,/MOTOR_RR*%
X50594100Y-18497800D03*
X6257000Y-15123700D03*
%TO.N,/MOTOR_RR_RAW*%
X50985300Y-20603500D03*
X24108900Y-18577500D03*
%TO.N,/MOTOR_RL*%
X6272800Y-16336200D03*
X50021600Y-12881100D03*
D22*
%TO.N,/VBAT_RAW*%
X15900000Y-37365000D03*
%TO.N,/USB_VBUS_RAW*%
X42200000Y-51800000D03*
X37509600Y-51800000D03*
D20*
%TO.N,/USB_CC2*%
X44574300Y-55152900D03*
X27223900Y-53647400D03*
%TO.N,/USB_SHIELD*%
X51060100Y-54143700D03*
%TO.N,/USB_DP*%
X56178500Y-49709700D03*
X47624600Y-47749300D03*
%TO.N,/USB_DM*%
X49149000Y-49404300D03*
X56974800Y-52547000D03*
%TO.N,/AUTO_DTR*%
X52142000Y-44045700D03*
%TO.N,/IBUS_RX*%
X49748000Y-18489400D03*
X40330000Y-17898700D03*
%TO.N,+5V*%
X52153600Y-29471100D03*
X38228100Y-36708900D03*
X37822500Y-48687900D03*
X52894500Y-38521600D03*
X39000000Y-34211500D03*
%TO.N,Net-(Q1-B)*%
X46809300Y-38500000D03*
%TO.N,/BOOT_STATUS_LED*%
X36730300Y-20241100D03*
X46721700Y-21429000D03*
%TO.N,/MOTOR_FL_RAW*%
X9674200Y-13587500D03*
X22453700Y-13789900D03*
%TO.N,/SW_NODE*%
X6512300Y-42055100D03*
X21471500Y-41308200D03*
X8935000Y-35191400D03*
%TO.N,/IMU_CS*%
X23626200Y-12838200D03*
X27754500Y-22024500D03*
%TO.N,/MOTOR_RL_RAW*%
X23178200Y-19207300D03*
X47357300Y-19443900D03*
%TO.N,/MOTOR_FR_RAW*%
X36621600Y-15797200D03*
X7137700Y-17949800D03*
%TO.N,/SPI_SCK*%
X35083500Y-13399700D03*
X28851700Y-27764200D03*
%TO.N,/SPI_MOSI*%
X26472400Y-22713700D03*
X39966600Y-21241100D03*
%TO.N,/SPI_MISO*%
X37540200Y-13045000D03*
D22*
X29500000Y-33950000D03*
D20*
X38534400Y-32916100D03*
%TO.N,/+5V_BUCK*%
X39933400Y-46986200D03*
%TO.N,Net-(U3-VSENSE)*%
X21610200Y-35645100D03*
X9966700Y-41160800D03*
%TD*%
%TO.N,/UART0_TX*%
D23*
X40883300Y-18187100D02*
X40883300Y-7167000D01*
X40883300Y-7167000D02*
X40842000Y-7125700D01*
X50010800Y-54759100D02*
X51500000Y-56248300D01*
X51509200Y-45588600D02*
X51510800Y-45587000D01*
X51500000Y-57000000D02*
X51500000Y-56248300D01*
X50010800Y-45588600D02*
X51509200Y-45588600D01*
X45826600Y-34850000D02*
X45826600Y-41404400D01*
X50010800Y-45588600D02*
X45826600Y-41404400D01*
X50010800Y-45588600D02*
X50010800Y-54759100D01*
X45826600Y-23130400D02*
X45826600Y-33549999D01*
X45826600Y-23130400D02*
X40883300Y-18187100D01*
%TO.N,/UART0_RX*%
X40545700Y-36522000D02*
X40139300Y-36928400D01*
X52770000Y-56633800D02*
X52770000Y-57000000D01*
X39416400Y-18484700D02*
X40545700Y-19614000D01*
X40545700Y-19614000D02*
X40545700Y-33549999D01*
X50434900Y-54298700D02*
X52770000Y-56633800D01*
X39416400Y-12416200D02*
X39416400Y-18484700D01*
X39980000Y-11852600D02*
X39416400Y-12416200D01*
X50434900Y-47764000D02*
X50434900Y-54298700D01*
X52160800Y-46038100D02*
X50434900Y-47764000D01*
X40545700Y-34850000D02*
X40545700Y-36522000D01*
X40139300Y-36928400D02*
X40139300Y-40972800D01*
%TO.N,/ESP_EN*%
X42849900Y-37090600D02*
X41604900Y-38335600D01*
X43981800Y-31263100D02*
X42849900Y-32395000D01*
X42849900Y-34850000D02*
X42849900Y-37090600D01*
X42849900Y-32395000D02*
X42849900Y-33549999D01*
X41604900Y-38335600D02*
X41604900Y-56785800D01*
%TO.N,/BOOT_IO0*%
X56291000Y-47586300D02*
X56291000Y-45970100D01*
X55310000Y-48567300D02*
X56291000Y-47586300D01*
X55310000Y-57000000D02*
X55310000Y-48567300D01*
%TO.N,+3V3*%
X40745600Y-37663300D02*
X40745600Y-50392900D01*
D24*
X40745600Y-50392900D02*
X40835900Y-50483200D01*
%TO.N,/I2C_SCL*%
D23*
X35000000Y-31118200D02*
X35852500Y-30265700D01*
X35852500Y-30265700D02*
X35852500Y-4235200D01*
%TO.N,/I2C_SDA*%
X35083500Y-27008300D02*
X35083500Y-14716600D01*
X35000000Y-27091800D02*
X35083500Y-27008300D01*
%TO.N,/BAT_ADC*%
X22454800Y-8360500D02*
X23074500Y-8980200D01*
X23074500Y-18323400D02*
X24337200Y-19586100D01*
X23074500Y-8980200D02*
X23074500Y-18323400D01*
X24337200Y-19586100D02*
X24337200Y-34912500D01*
%TO.N,/JTAG_TDI*%
X17659000Y-50589300D02*
X17659000Y-26436000D01*
X12000000Y-56248300D02*
X17659000Y-50589300D01*
X12000000Y-57000000D02*
X12000000Y-56248300D01*
%TO.N,/JTAG_TCK*%
X25507700Y-50928500D02*
X25507700Y-23301600D01*
X14037400Y-57767400D02*
X18668800Y-57767400D01*
X13270000Y-57000000D02*
X14037400Y-57767400D01*
X18668800Y-57767400D02*
X25507700Y-50928500D01*
%TO.N,/JTAG_TMS*%
X18595300Y-52944700D02*
X18595300Y-19089700D01*
X14540000Y-57000000D02*
X18595300Y-52944700D01*
%TO.N,/JTAG_TDO*%
X19173400Y-53636600D02*
X15810000Y-57000000D01*
X19173400Y-27012400D02*
X19173400Y-53636600D01*
%TO.N,/VBAT_RAW*%
D25*
X15900000Y-34000000D02*
X15000000Y-33100000D01*
X15900000Y-37365000D02*
X15900000Y-34000000D01*
X11200000Y-10000000D02*
X3000000Y-5000000D01*
X15000000Y-30000000D02*
X11200000Y-26200000D01*
X11200000Y-26200000D02*
X11200000Y-10000000D01*
X15000000Y-33100000D02*
X15000000Y-30000000D01*
%TO.N,/USB_SHIELD*%
D23*
X57975000Y-46873900D02*
X57975000Y-47000000D01*
X51000000Y-43825000D02*
X52340100Y-42484900D01*
X47320000Y-54295000D02*
X47320000Y-58475000D01*
X55019500Y-45194300D02*
X51818500Y-48395300D01*
X51818500Y-53385300D02*
X51060100Y-54143700D01*
X52340100Y-42484900D02*
X53430300Y-42484900D01*
X55019500Y-44074100D02*
X55019500Y-45194300D01*
X56295400Y-45194300D02*
X57975000Y-46873900D01*
X55019500Y-45194300D02*
X56295400Y-45194300D01*
X51818500Y-48395300D02*
X51818500Y-53385300D01*
X38680000Y-58475000D02*
X38680000Y-54295000D01*
X53430300Y-42484900D02*
X55019500Y-44074100D01*
%TO.N,/AUTO_DTR*%
X53000000Y-43175000D02*
X52142000Y-44033000D01*
X52142000Y-44033000D02*
X52142000Y-44045700D01*
%TO.N,+5V*%
D26*
X39000000Y-35937000D02*
X39000000Y-34211500D01*
X52153600Y-29471100D02*
X52153600Y-37780700D01*
X52153600Y-37780700D02*
X52894500Y-38521600D01*
X39000000Y-34212000D02*
X52153600Y-34212000D01*
X38228100Y-36708900D02*
X39000000Y-35937000D01*
%TO.N,Net-(Q1-B)*%
D23*
X46809300Y-40802600D02*
X46809300Y-38500000D01*
X50831700Y-44825000D02*
X46809300Y-40802600D01*
X53000000Y-44825000D02*
X50831700Y-44825000D01*
%TO.N,/SW_NODE*%
D25*
X8935000Y-35191400D02*
X6512300Y-37614100D01*
X6512300Y-37614100D02*
X6512300Y-42055100D01*
%TO.N,/IMU_CS*%
D23*
X23626200Y-12838200D02*
X27754500Y-16966500D01*
X27754500Y-16966500D02*
X27754500Y-22024500D01*
%TO.N,/SPI_SCK*%
X28851700Y-19631500D02*
X35083500Y-13399700D01*
X28851700Y-27764200D02*
X28851700Y-19631500D01*
%TO.N,/SPI_MISO*%
X37540200Y-13045000D02*
X37540200Y-31921900D01*
X37540200Y-31921900D02*
X38534400Y-32916100D01*
%TO.N,/+5V_BUCK*%
D26*
X39775000Y-42000000D02*
X39775000Y-46827800D01*
X39775000Y-46827800D02*
X39933400Y-46986200D01*
%TD*%
%TA.AperFunction,Conductor*%
%TO.N,GND*%
G36*
X55433539Y-45814485D02*
G01*
X55479294Y-45867289D01*
X55490500Y-45918800D01*
X55490500Y-46048946D01*
X55521261Y-46203589D01*
X55521264Y-46203601D01*
X55581602Y-46349272D01*
X55581609Y-46349285D01*
X55669602Y-46480974D01*
X55690480Y-46547651D01*
X55690500Y-46549865D01*
X55690500Y-47286202D01*
X55670815Y-47353241D01*
X55654181Y-47373883D01*
X54829481Y-48198582D01*
X54829480Y-48198584D01*
X54794259Y-48259589D01*
X54750423Y-48335515D01*
X54709499Y-48488243D01*
X54709499Y-48488245D01*
X54709499Y-48656346D01*
X54709500Y-48656359D01*
X54709500Y-56012066D01*
X54689815Y-56079105D01*
X54637011Y-56124860D01*
X54567853Y-56134804D01*
X54519302Y-56116202D01*
X54519284Y-56116238D01*
X54519001Y-56116086D01*
X54516616Y-56115173D01*
X54513911Y-56113366D01*
X54513912Y-56113366D01*
X54331839Y-56037950D01*
X54331829Y-56037947D01*
X54138543Y-55999500D01*
X54138541Y-55999500D01*
X53941459Y-55999500D01*
X53941457Y-55999500D01*
X53748170Y-56037947D01*
X53748160Y-56037950D01*
X53566089Y-56113366D01*
X53473890Y-56174971D01*
X53407213Y-56195848D01*
X53339833Y-56177363D01*
X53336110Y-56174971D01*
X53287441Y-56142452D01*
X53243914Y-56113368D01*
X53243911Y-56113366D01*
X53243910Y-56113366D01*
X53061837Y-56037949D01*
X53061828Y-56037946D01*
X53050728Y-56035739D01*
X52988817Y-56003354D01*
X52987238Y-56001803D01*
X51736838Y-54751403D01*
X51703353Y-54690080D01*
X51708337Y-54620388D01*
X51721414Y-54594835D01*
X51769494Y-54522879D01*
X51829837Y-54377197D01*
X51860600Y-54222542D01*
X51860738Y-54221850D01*
X51893123Y-54159939D01*
X51894614Y-54158420D01*
X52299020Y-53754016D01*
X52378077Y-53617084D01*
X52419001Y-53464357D01*
X52419001Y-53306242D01*
X52419001Y-53298647D01*
X52419000Y-53298629D01*
X52419000Y-53261359D01*
X52438685Y-53194320D01*
X52491489Y-53148565D01*
X52518801Y-53139743D01*
X52603797Y-53122837D01*
X52749479Y-53062494D01*
X52880589Y-52974889D01*
X52992089Y-52863389D01*
X53045837Y-52782950D01*
X53079692Y-52732283D01*
X53079697Y-52732272D01*
X53116011Y-52644602D01*
X53140037Y-52586597D01*
X53170800Y-52431942D01*
X53170800Y-52274258D01*
X53170800Y-52274255D01*
X53170799Y-52274253D01*
X53167946Y-52259910D01*
X53140037Y-52119603D01*
X53136873Y-52111964D01*
X53079697Y-51973927D01*
X53079690Y-51973914D01*
X52992089Y-51842811D01*
X52992086Y-51842807D01*
X52880592Y-51731313D01*
X52880588Y-51731310D01*
X52749485Y-51643709D01*
X52749472Y-51643702D01*
X52603801Y-51583364D01*
X52603791Y-51583361D01*
X52518808Y-51566457D01*
X52456897Y-51534072D01*
X52422323Y-51473356D01*
X52419000Y-51444840D01*
X52419000Y-48695397D01*
X52438685Y-48628358D01*
X52455319Y-48607716D01*
X55231917Y-45831119D01*
X55258844Y-45816415D01*
X55284663Y-45799823D01*
X55290863Y-45798931D01*
X55293240Y-45797634D01*
X55319598Y-45794800D01*
X55366500Y-45794800D01*
X55433539Y-45814485D01*
G37*
%TD.AperFunction*%
%TA.AperFunction,Conductor*%
G36*
X5943039Y-419685D02*
G01*
X5988794Y-472489D01*
X6000000Y-524000D01*
X6000000Y-700000D01*
X54000000Y-700000D01*
X54000000Y-524000D01*
X54019685Y-456961D01*
X54072489Y-411206D01*
X54124000Y-400000D01*
X58071865Y-400000D01*
X58119317Y-409439D01*
X58386527Y-520120D01*
X58399049Y-526149D01*
X58656732Y-668566D01*
X58668493Y-675956D01*
X58908616Y-846333D01*
X58919466Y-854985D01*
X59027564Y-951587D01*
X59138997Y-1051169D01*
X59148830Y-1061002D01*
X59345010Y-1280528D01*
X59353668Y-1291385D01*
X59524041Y-1531503D01*
X59531433Y-1543267D01*
X59584527Y-1639334D01*
X59600000Y-1699313D01*
X59600000Y-58800684D01*
X59584527Y-58860666D01*
X59531432Y-58956733D01*
X59524035Y-58968505D01*
X59353674Y-59208605D01*
X59345010Y-59219471D01*
X59148830Y-59438997D01*
X59138997Y-59448830D01*
X59005131Y-59568460D01*
X58942027Y-59598454D01*
X58922504Y-59600000D01*
X48270850Y-59600000D01*
X48203811Y-59580315D01*
X48158056Y-59527511D01*
X48148112Y-59458353D01*
X48167748Y-59407109D01*
X48206628Y-59348920D01*
X48206628Y-59348919D01*
X48206632Y-59348914D01*
X48282051Y-59166835D01*
X48320500Y-58973541D01*
X48320500Y-57976459D01*
X48320500Y-57976456D01*
X48282052Y-57783170D01*
X48282051Y-57783169D01*
X48282051Y-57783165D01*
X48235323Y-57670352D01*
X48206635Y-57601092D01*
X48206628Y-57601079D01*
X48097139Y-57437218D01*
X48097136Y-57437214D01*
X47956819Y-57296897D01*
X47923334Y-57235574D01*
X47920500Y-57209216D01*
X47920500Y-56101558D01*
X47940185Y-56034519D01*
X47992989Y-55988764D01*
X48062147Y-55978820D01*
X48068692Y-55979941D01*
X48228855Y-56011800D01*
X48228858Y-56011800D01*
X48386544Y-56011800D01*
X48386545Y-56011799D01*
X48541197Y-55981037D01*
X48686879Y-55920694D01*
X48817989Y-55833089D01*
X48929489Y-55721589D01*
X49017094Y-55590479D01*
X49077437Y-55444797D01*
X49108200Y-55290142D01*
X49108200Y-55132458D01*
X49108200Y-55132455D01*
X49108199Y-55132453D01*
X49080039Y-54990885D01*
X49077437Y-54977803D01*
X49053245Y-54919398D01*
X49017097Y-54832127D01*
X49017090Y-54832114D01*
X48929489Y-54701011D01*
X48929486Y-54701007D01*
X48817992Y-54589513D01*
X48817988Y-54589510D01*
X48686885Y-54501909D01*
X48686872Y-54501902D01*
X48541201Y-54441564D01*
X48541191Y-54441561D01*
X48420308Y-54417516D01*
X48358397Y-54385131D01*
X48323823Y-54324415D01*
X48320500Y-54295899D01*
X48320500Y-53646456D01*
X48282052Y-53453170D01*
X48282051Y-53453169D01*
X48282051Y-53453165D01*
X48256711Y-53391988D01*
X48206635Y-53271092D01*
X48206628Y-53271079D01*
X48097139Y-53107218D01*
X48097136Y-53107214D01*
X47957785Y-52967863D01*
X47957781Y-52967860D01*
X47793920Y-52858371D01*
X47793907Y-52858364D01*
X47611839Y-52782950D01*
X47611829Y-52782947D01*
X47418543Y-52744500D01*
X47418541Y-52744500D01*
X47221459Y-52744500D01*
X47221457Y-52744500D01*
X47028170Y-52782947D01*
X47028160Y-52782950D01*
X46846092Y-52858364D01*
X46846079Y-52858371D01*
X46682218Y-52967860D01*
X46682214Y-52967863D01*
X46542863Y-53107214D01*
X46542860Y-53107218D01*
X46433371Y-53271079D01*
X46433364Y-53271092D01*
X46357950Y-53453160D01*
X46357947Y-53453170D01*
X46319500Y-53646456D01*
X46319500Y-54279137D01*
X46299815Y-54346176D01*
X46247011Y-54391931D01*
X46177853Y-54401875D01*
X46133501Y-54386525D01*
X46073536Y-54351905D01*
X46073537Y-54351905D01*
X46033224Y-54341103D01*
X45952601Y-54319500D01*
X45827399Y-54319500D01*
X45746775Y-54341103D01*
X45706463Y-54351905D01*
X45598037Y-54414504D01*
X45598034Y-54414506D01*
X45509506Y-54503034D01*
X45509504Y-54503037D01*
X45446905Y-54611463D01*
X45446905Y-54611464D01*
X45439987Y-54637280D01*
X45403620Y-54696939D01*
X45340772Y-54727466D01*
X45271396Y-54719169D01*
X45217520Y-54674681D01*
X45217188Y-54674189D01*
X45196089Y-54642611D01*
X45196087Y-54642608D01*
X45084592Y-54531113D01*
X45084588Y-54531110D01*
X44953485Y-54443509D01*
X44953472Y-54443502D01*
X44807801Y-54383164D01*
X44807789Y-54383161D01*
X44653145Y-54352400D01*
X44653142Y-54352400D01*
X44495458Y-54352400D01*
X44495455Y-54352400D01*
X44340810Y-54383161D01*
X44340798Y-54383164D01*
X44195127Y-54443502D01*
X44195114Y-54443509D01*
X44064011Y-54531110D01*
X44064007Y-54531113D01*
X43952513Y-54642607D01*
X43952510Y-54642611D01*
X43864909Y-54773714D01*
X43864902Y-54773727D01*
X43804564Y-54919398D01*
X43804561Y-54919410D01*
X43773800Y-55074053D01*
X43773800Y-55231746D01*
X43804561Y-55386389D01*
X43804564Y-55386401D01*
X43864902Y-55532072D01*
X43864909Y-55532085D01*
X43952510Y-55663188D01*
X43952513Y-55663192D01*
X44064007Y-55774686D01*
X44064011Y-55774689D01*
X44195114Y-55862290D01*
X44195127Y-55862297D01*
X44323172Y-55915334D01*
X44340803Y-55922637D01*
X44495453Y-55953399D01*
X44495456Y-55953400D01*
X44495458Y-55953400D01*
X44653144Y-55953400D01*
X44653145Y-55953399D01*
X44807797Y-55922637D01*
X44953479Y-55862294D01*
X45084589Y-55774689D01*
X45196089Y-55663189D01*
X45283694Y-55532079D01*
X45344037Y-55386397D01*
X45373233Y-55239620D01*
X45375911Y-55226158D01*
X45408296Y-55164247D01*
X45469011Y-55129673D01*
X45538781Y-55133412D01*
X45585209Y-55162668D01*
X45598036Y-55175495D01*
X45706464Y-55238095D01*
X45827399Y-55270500D01*
X45827401Y-55270500D01*
X45952599Y-55270500D01*
X45952601Y-55270500D01*
X46073536Y-55238095D01*
X46181964Y-55175495D01*
X46186502Y-55170956D01*
X46247820Y-55137471D01*
X46317512Y-55142452D01*
X46373448Y-55184321D01*
X46388745Y-55211184D01*
X46433364Y-55318907D01*
X46433371Y-55318920D01*
X46542860Y-55482781D01*
X46542863Y-55482785D01*
X46683181Y-55623103D01*
X46716666Y-55684426D01*
X46719500Y-55710784D01*
X46719500Y-57209216D01*
X46699815Y-57276255D01*
X46683181Y-57296897D01*
X46542863Y-57437214D01*
X46542860Y-57437218D01*
X46433371Y-57601079D01*
X46433364Y-57601092D01*
X46357950Y-57783160D01*
X46357947Y-57783170D01*
X46319500Y-57976456D01*
X46319500Y-57976459D01*
X46319500Y-58973541D01*
X46319500Y-58973543D01*
X46319499Y-58973543D01*
X46357947Y-59166829D01*
X46357950Y-59166839D01*
X46433364Y-59348907D01*
X46433371Y-59348920D01*
X46472252Y-59407109D01*
X46493130Y-59473787D01*
X46474645Y-59541167D01*
X46422667Y-59587857D01*
X46369150Y-59600000D01*
X39630850Y-59600000D01*
X39563811Y-59580315D01*
X39518056Y-59527511D01*
X39508112Y-59458353D01*
X39527748Y-59407109D01*
X39566628Y-59348920D01*
X39566628Y-59348919D01*
X39566632Y-59348914D01*
X39642051Y-59166835D01*
X39680500Y-58973541D01*
X39680500Y-57976459D01*
X39680500Y-57976456D01*
X39642052Y-57783170D01*
X39642051Y-57783169D01*
X39642051Y-57783165D01*
X39595323Y-57670352D01*
X39566635Y-57601092D01*
X39566628Y-57601079D01*
X39457139Y-57437218D01*
X39457136Y-57437214D01*
X39316819Y-57296897D01*
X39283334Y-57235574D01*
X39280500Y-57209216D01*
X39280500Y-55710784D01*
X39300185Y-55643745D01*
X39316819Y-55623103D01*
X39457136Y-55482785D01*
X39457139Y-55482782D01*
X39566632Y-55318914D01*
X39611256Y-55211181D01*
X39655094Y-55156781D01*
X39721387Y-55134715D01*
X39789087Y-55151993D01*
X39813496Y-55170955D01*
X39818036Y-55175495D01*
X39926464Y-55238095D01*
X40047399Y-55270500D01*
X40047401Y-55270500D01*
X40172599Y-55270500D01*
X40172601Y-55270500D01*
X40293536Y-55238095D01*
X40401964Y-55175495D01*
X40490495Y-55086964D01*
X40553095Y-54978536D01*
X40585500Y-54857601D01*
X40585500Y-54732399D01*
X40553095Y-54611464D01*
X40490495Y-54503036D01*
X40401964Y-54414505D01*
X40293536Y-54351905D01*
X40293537Y-54351905D01*
X40253224Y-54341103D01*
X40172601Y-54319500D01*
X40047399Y-54319500D01*
X39966775Y-54341103D01*
X39926463Y-54351905D01*
X39866499Y-54386525D01*
X39798598Y-54402996D01*
X39732572Y-54380143D01*
X39689382Y-54325222D01*
X39680500Y-54279137D01*
X39680500Y-53646456D01*
X39642052Y-53453170D01*
X39642051Y-53453169D01*
X39642051Y-53453165D01*
X39616711Y-53391988D01*
X39566635Y-53271092D01*
X39566628Y-53271079D01*
X39457139Y-53107218D01*
X39457136Y-53107214D01*
X39317785Y-52967863D01*
X39317781Y-52967860D01*
X39153920Y-52858371D01*
X39153907Y-52858364D01*
X38971839Y-52782950D01*
X38971829Y-52782947D01*
X38778543Y-52744500D01*
X38778541Y-52744500D01*
X38581459Y-52744500D01*
X38581457Y-52744500D01*
X38388170Y-52782947D01*
X38388160Y-52782950D01*
X38206092Y-52858364D01*
X38206079Y-52858371D01*
X38042218Y-52967860D01*
X38042214Y-52967863D01*
X37902863Y-53107214D01*
X37902860Y-53107218D01*
X37793371Y-53271079D01*
X37793364Y-53271092D01*
X37717950Y-53453160D01*
X37717947Y-53453170D01*
X37679500Y-53646456D01*
X37679500Y-53646459D01*
X37679500Y-54943541D01*
X37679500Y-54943543D01*
X37679499Y-54943543D01*
X37717947Y-55136829D01*
X37717950Y-55136839D01*
X37793364Y-55318907D01*
X37793371Y-55318920D01*
X37902860Y-55482781D01*
X37902863Y-55482785D01*
X38043181Y-55623103D01*
X38076666Y-55684426D01*
X38079500Y-55710784D01*
X38079500Y-57209216D01*
X38059815Y-57276255D01*
X38043181Y-57296897D01*
X37902863Y-57437214D01*
X37902860Y-57437218D01*
X37793371Y-57601079D01*
X37793364Y-57601092D01*
X37717950Y-57783160D01*
X37717947Y-57783170D01*
X37679500Y-57976456D01*
X37679500Y-57976459D01*
X37679500Y-58973541D01*
X37679500Y-58973543D01*
X37679499Y-58973543D01*
X37717947Y-59166829D01*
X37717950Y-59166839D01*
X37793364Y-59348907D01*
X37793371Y-59348920D01*
X37832252Y-59407109D01*
X37853130Y-59473787D01*
X37834645Y-59541167D01*
X37782667Y-59587857D01*
X37729150Y-59600000D01*
X1277496Y-59600000D01*
X1251263Y-59592297D01*
X1224265Y-59587993D01*
X1214494Y-59581500D01*
X1210457Y-59580315D01*
X1194869Y-59568460D01*
X1061002Y-59448830D01*
X1051169Y-59438997D01*
X854985Y-59219466D01*
X846333Y-59208616D01*
X675956Y-58968493D01*
X668566Y-58956732D01*
X526153Y-58699056D01*
X520120Y-58686527D01*
X409439Y-58419317D01*
X400000Y-58371865D01*
X400000Y-56452135D01*
X10999500Y-56452135D01*
X10999500Y-57547870D01*
X10999501Y-57547876D01*
X11005908Y-57607483D01*
X11056202Y-57742328D01*
X11056206Y-57742335D01*
X11142452Y-57857544D01*
X11142455Y-57857547D01*
X11257664Y-57943793D01*
X11257671Y-57943797D01*
X11392517Y-57994091D01*
X11392516Y-57994091D01*
X11399444Y-57994835D01*
X11452127Y-58000500D01*
X12547872Y-58000499D01*
X12607483Y-57994091D01*
X12742331Y-57943796D01*
X12754110Y-57934977D01*
X12819570Y-57910558D01*
X12875872Y-57919680D01*
X12978165Y-57962051D01*
X12978169Y-57962051D01*
X12978170Y-57962052D01*
X13171456Y-58000500D01*
X13369903Y-58000500D01*
X13399343Y-58009144D01*
X13429330Y-58015668D01*
X13434345Y-58019422D01*
X13436942Y-58020185D01*
X13457584Y-58036819D01*
X13552539Y-58131774D01*
X13552549Y-58131785D01*
X13556879Y-58136115D01*
X13556880Y-58136116D01*
X13668684Y-58247920D01*
X13668686Y-58247921D01*
X13668690Y-58247924D01*
X13805609Y-58326973D01*
X13805616Y-58326977D01*
X13917419Y-58356934D01*
X13958342Y-58367900D01*
X13958343Y-58367900D01*
X18582131Y-58367900D01*
X18582147Y-58367901D01*
X18589743Y-58367901D01*
X18747854Y-58367901D01*
X18747857Y-58367901D01*
X18900585Y-58326977D01*
X18950704Y-58298039D01*
X19037516Y-58247920D01*
X19149320Y-58136116D01*
X19149320Y-58136114D01*
X19159528Y-58125907D01*
X19159530Y-58125904D01*
X23716881Y-53568553D01*
X26423400Y-53568553D01*
X26423400Y-53726246D01*
X26454161Y-53880888D01*
X26454163Y-53880897D01*
X26514502Y-54026572D01*
X26514509Y-54026585D01*
X26602110Y-54157688D01*
X26602113Y-54157692D01*
X26713607Y-54269186D01*
X26713611Y-54269189D01*
X26844714Y-54356790D01*
X26844727Y-54356797D01*
X26953557Y-54401875D01*
X26990403Y-54417137D01*
X27113190Y-54441561D01*
X27145053Y-54447899D01*
X27145056Y-54447900D01*
X27145058Y-54447900D01*
X27302744Y-54447900D01*
X27302745Y-54447899D01*
X27457397Y-54417137D01*
X27603079Y-54356794D01*
X27734189Y-54269189D01*
X27845689Y-54157689D01*
X27933294Y-54026579D01*
X27993637Y-53880897D01*
X28024400Y-53726242D01*
X28024400Y-53568558D01*
X28024400Y-53568555D01*
X28024399Y-53568553D01*
X28003673Y-53464357D01*
X27993637Y-53413903D01*
X27954395Y-53319164D01*
X27933297Y-53268227D01*
X27933290Y-53268214D01*
X27845689Y-53137111D01*
X27845686Y-53137107D01*
X27734192Y-53025613D01*
X27734188Y-53025610D01*
X27603085Y-52938009D01*
X27603072Y-52938002D01*
X27538671Y-52911327D01*
X27457401Y-52877664D01*
X27457389Y-52877661D01*
X27302745Y-52846900D01*
X27302742Y-52846900D01*
X27145058Y-52846900D01*
X27145055Y-52846900D01*
X26990410Y-52877661D01*
X26990398Y-52877664D01*
X26844727Y-52938002D01*
X26844714Y-52938009D01*
X26713611Y-53025610D01*
X26713607Y-53025613D01*
X26602113Y-53137107D01*
X26602110Y-53137111D01*
X26514509Y-53268214D01*
X26514502Y-53268227D01*
X26454164Y-53413898D01*
X26454161Y-53413910D01*
X26423400Y-53568553D01*
X23716881Y-53568553D01*
X24482581Y-52802853D01*
X34907500Y-52802853D01*
X34907500Y-52960546D01*
X34938261Y-53115189D01*
X34938264Y-53115201D01*
X34998602Y-53260872D01*
X34998609Y-53260885D01*
X35086210Y-53391988D01*
X35086213Y-53391992D01*
X35197707Y-53503486D01*
X35197711Y-53503489D01*
X35328814Y-53591090D01*
X35328827Y-53591097D01*
X35462485Y-53646459D01*
X35474503Y-53651437D01*
X35629153Y-53682199D01*
X35629156Y-53682200D01*
X35629158Y-53682200D01*
X35786844Y-53682200D01*
X35786845Y-53682199D01*
X35941497Y-53651437D01*
X36087179Y-53591094D01*
X36218289Y-53503489D01*
X36329789Y-53391989D01*
X36417394Y-53260879D01*
X36419251Y-53256397D01*
X36444963Y-53194320D01*
X36477737Y-53115197D01*
X36508500Y-52960542D01*
X36508500Y-52802858D01*
X36508500Y-52802855D01*
X36508499Y-52802853D01*
X36496892Y-52744500D01*
X36477737Y-52648203D01*
X36477735Y-52648198D01*
X36417397Y-52502527D01*
X36417390Y-52502514D01*
X36329789Y-52371411D01*
X36329786Y-52371407D01*
X36218292Y-52259913D01*
X36218288Y-52259910D01*
X36087185Y-52172309D01*
X36087172Y-52172302D01*
X35941501Y-52111964D01*
X35941489Y-52111961D01*
X35786845Y-52081200D01*
X35786842Y-52081200D01*
X35629158Y-52081200D01*
X35629155Y-52081200D01*
X35474510Y-52111961D01*
X35474498Y-52111964D01*
X35328827Y-52172302D01*
X35328814Y-52172309D01*
X35197711Y-52259910D01*
X35197707Y-52259913D01*
X35086213Y-52371407D01*
X35086210Y-52371411D01*
X34998609Y-52502514D01*
X34998602Y-52502527D01*
X34938264Y-52648198D01*
X34938261Y-52648210D01*
X34907500Y-52802853D01*
X24482581Y-52802853D01*
X25411514Y-51873920D01*
X36759099Y-51873920D01*
X36787940Y-52018907D01*
X36787943Y-52018917D01*
X36844512Y-52155488D01*
X36844519Y-52155501D01*
X36926648Y-52278415D01*
X36926651Y-52278419D01*
X37031180Y-52382948D01*
X37031184Y-52382951D01*
X37154098Y-52465080D01*
X37154111Y-52465087D01*
X37290682Y-52521656D01*
X37290687Y-52521658D01*
X37290691Y-52521658D01*
X37290692Y-52521659D01*
X37435679Y-52550500D01*
X37435682Y-52550500D01*
X37583520Y-52550500D01*
X37681062Y-52531096D01*
X37728513Y-52521658D01*
X37865095Y-52465084D01*
X37988016Y-52382951D01*
X38092551Y-52278416D01*
X38174684Y-52155495D01*
X38231258Y-52018913D01*
X38258555Y-51881685D01*
X38260100Y-51873920D01*
X38260100Y-51726079D01*
X38231259Y-51581092D01*
X38231258Y-51581091D01*
X38231258Y-51581087D01*
X38225198Y-51566457D01*
X38174687Y-51444511D01*
X38174680Y-51444498D01*
X38092551Y-51321584D01*
X38092548Y-51321580D01*
X37988019Y-51217051D01*
X37988015Y-51217048D01*
X37865101Y-51134919D01*
X37865088Y-51134912D01*
X37728517Y-51078343D01*
X37728507Y-51078340D01*
X37583520Y-51049500D01*
X37583518Y-51049500D01*
X37435682Y-51049500D01*
X37435680Y-51049500D01*
X37290692Y-51078340D01*
X37290682Y-51078343D01*
X37154111Y-51134912D01*
X37154098Y-51134919D01*
X37031184Y-51217048D01*
X37031180Y-51217051D01*
X36926651Y-51321580D01*
X36926648Y-51321584D01*
X36844519Y-51444498D01*
X36844512Y-51444511D01*
X36787943Y-51581082D01*
X36787940Y-51581092D01*
X36759100Y-51726079D01*
X36759100Y-51726082D01*
X36759100Y-51873918D01*
X36759100Y-51873920D01*
X36759099Y-51873920D01*
X25411514Y-51873920D01*
X25866206Y-51419228D01*
X25866211Y-51419224D01*
X25876414Y-51409020D01*
X25876416Y-51409020D01*
X25988220Y-51297216D01*
X26050236Y-51189800D01*
X26067277Y-51160285D01*
X26108200Y-51007557D01*
X26108200Y-50849443D01*
X26108200Y-48609053D01*
X37022000Y-48609053D01*
X37022000Y-48766746D01*
X37052761Y-48921389D01*
X37052764Y-48921401D01*
X37113102Y-49067072D01*
X37113109Y-49067085D01*
X37200710Y-49198188D01*
X37200713Y-49198192D01*
X37312207Y-49309686D01*
X37312211Y-49309689D01*
X37443314Y-49397290D01*
X37443327Y-49397297D01*
X37588998Y-49457635D01*
X37589003Y-49457637D01*
X37717245Y-49483146D01*
X37743653Y-49488399D01*
X37743656Y-49488400D01*
X37743658Y-49488400D01*
X37901344Y-49488400D01*
X37901345Y-49488399D01*
X38055997Y-49457637D01*
X38201679Y-49397294D01*
X38332789Y-49309689D01*
X38444289Y-49198189D01*
X38531894Y-49067079D01*
X38592237Y-48921397D01*
X38623000Y-48766742D01*
X38623000Y-48609058D01*
X38623000Y-48609055D01*
X38622999Y-48609053D01*
X38611213Y-48549800D01*
X38592237Y-48454403D01*
X38569910Y-48400500D01*
X38531897Y-48308727D01*
X38531890Y-48308714D01*
X38444289Y-48177611D01*
X38444286Y-48177607D01*
X38332792Y-48066113D01*
X38332788Y-48066110D01*
X38201685Y-47978509D01*
X38201672Y-47978502D01*
X38056001Y-47918164D01*
X38055989Y-47918161D01*
X37901345Y-47887400D01*
X37901342Y-47887400D01*
X37743658Y-47887400D01*
X37743655Y-47887400D01*
X37589010Y-47918161D01*
X37588998Y-47918164D01*
X37443327Y-47978502D01*
X37443314Y-47978509D01*
X37312211Y-48066110D01*
X37312207Y-48066113D01*
X37200713Y-48177607D01*
X37200710Y-48177611D01*
X37113109Y-48308714D01*
X37113102Y-48308727D01*
X37052764Y-48454398D01*
X37052761Y-48454410D01*
X37022000Y-48609053D01*
X26108200Y-48609053D01*
X26108200Y-35315253D01*
X34199500Y-35315253D01*
X34199500Y-35472946D01*
X34230261Y-35627589D01*
X34230264Y-35627601D01*
X34290602Y-35773272D01*
X34290609Y-35773285D01*
X34378210Y-35904388D01*
X34378213Y-35904392D01*
X34489707Y-36015886D01*
X34489711Y-36015889D01*
X34620814Y-36103490D01*
X34620827Y-36103497D01*
X34766498Y-36163835D01*
X34766503Y-36163837D01*
X34921153Y-36194599D01*
X34921156Y-36194600D01*
X34921158Y-36194600D01*
X35078844Y-36194600D01*
X35078845Y-36194599D01*
X35233497Y-36163837D01*
X35379179Y-36103494D01*
X35510289Y-36015889D01*
X35621789Y-35904389D01*
X35709394Y-35773279D01*
X35712644Y-35765434D01*
X35747104Y-35682238D01*
X35769737Y-35627597D01*
X35800500Y-35472942D01*
X35800500Y-35315258D01*
X35800500Y-35315255D01*
X35800499Y-35315253D01*
X35789700Y-35260963D01*
X35769737Y-35160603D01*
X35751635Y-35116900D01*
X35709397Y-35014927D01*
X35709390Y-35014914D01*
X35621789Y-34883811D01*
X35621786Y-34883807D01*
X35510292Y-34772313D01*
X35510288Y-34772310D01*
X35379185Y-34684709D01*
X35379172Y-34684702D01*
X35233501Y-34624364D01*
X35233489Y-34624361D01*
X35078845Y-34593600D01*
X35078842Y-34593600D01*
X34921158Y-34593600D01*
X34921155Y-34593600D01*
X34766510Y-34624361D01*
X34766498Y-34624364D01*
X34620827Y-34684702D01*
X34620814Y-34684709D01*
X34489711Y-34772310D01*
X34489707Y-34772313D01*
X34378213Y-34883807D01*
X34378210Y-34883811D01*
X34290609Y-35014914D01*
X34290602Y-35014927D01*
X34230264Y-35160598D01*
X34230261Y-35160610D01*
X34199500Y-35315253D01*
X26108200Y-35315253D01*
X26108200Y-32573920D01*
X28049499Y-32573920D01*
X28078340Y-32718907D01*
X28078343Y-32718917D01*
X28134912Y-32855488D01*
X28134919Y-32855501D01*
X28217048Y-32978415D01*
X28217051Y-32978419D01*
X28321580Y-33082948D01*
X28321584Y-33082951D01*
X28444498Y-33165080D01*
X28444511Y-33165087D01*
X28574175Y-33218795D01*
X28581087Y-33221658D01*
X28581091Y-33221658D01*
X28581092Y-33221659D01*
X28726079Y-33250500D01*
X28838770Y-33250500D01*
X28905809Y-33270185D01*
X28951564Y-33322989D01*
X28961508Y-33392147D01*
X28932483Y-33455703D01*
X28926451Y-33462181D01*
X28917051Y-33471580D01*
X28917048Y-33471584D01*
X28834919Y-33594498D01*
X28834912Y-33594511D01*
X28778343Y-33731082D01*
X28778340Y-33731092D01*
X28749500Y-33876079D01*
X28749500Y-33876082D01*
X28749500Y-34023918D01*
X28749500Y-34023920D01*
X28749499Y-34023920D01*
X28778340Y-34168907D01*
X28778343Y-34168917D01*
X28834912Y-34305488D01*
X28834919Y-34305501D01*
X28917048Y-34428415D01*
X28917051Y-34428419D01*
X29021580Y-34532948D01*
X29021584Y-34532951D01*
X29144498Y-34615080D01*
X29144511Y-34615087D01*
X29281082Y-34671656D01*
X29281087Y-34671658D01*
X29281091Y-34671658D01*
X29281092Y-34671659D01*
X29426079Y-34700500D01*
X29426082Y-34700500D01*
X29573920Y-34700500D01*
X29682013Y-34678998D01*
X29718913Y-34671658D01*
X29833091Y-34624364D01*
X29855488Y-34615087D01*
X29855488Y-34615086D01*
X29855495Y-34615084D01*
X29978416Y-34532951D01*
X30082951Y-34428416D01*
X30165084Y-34305495D01*
X30221658Y-34168913D01*
X30250500Y-34023918D01*
X30250500Y-33876082D01*
X30250500Y-33876079D01*
X30221659Y-33731092D01*
X30221658Y-33731091D01*
X30221658Y-33731087D01*
X30182451Y-33636433D01*
X30165087Y-33594511D01*
X30165080Y-33594498D01*
X30082951Y-33471584D01*
X30082948Y-33471580D01*
X29978419Y-33367051D01*
X29978415Y-33367048D01*
X29855501Y-33284919D01*
X29855488Y-33284912D01*
X29718917Y-33228343D01*
X29718907Y-33228340D01*
X29573920Y-33199500D01*
X29573918Y-33199500D01*
X29461230Y-33199500D01*
X29394191Y-33179815D01*
X29348436Y-33127011D01*
X29338492Y-33057853D01*
X29367517Y-32994297D01*
X29373549Y-32987819D01*
X29382948Y-32978419D01*
X29382951Y-32978416D01*
X29465084Y-32855495D01*
X29521658Y-32718913D01*
X29550500Y-32573918D01*
X29550500Y-32426082D01*
X29550500Y-32426079D01*
X29521659Y-32281092D01*
X29521658Y-32281091D01*
X29521658Y-32281087D01*
X29501654Y-32232792D01*
X29465087Y-32144511D01*
X29465080Y-32144498D01*
X29382951Y-32021584D01*
X29382948Y-32021580D01*
X29278419Y-31917051D01*
X29278415Y-31917048D01*
X29155501Y-31834919D01*
X29155488Y-31834912D01*
X29018917Y-31778343D01*
X29018907Y-31778340D01*
X28873920Y-31749500D01*
X28873918Y-31749500D01*
X28726082Y-31749500D01*
X28726080Y-31749500D01*
X28581092Y-31778340D01*
X28581082Y-31778343D01*
X28444511Y-31834912D01*
X28444498Y-31834919D01*
X28321584Y-31917048D01*
X28321580Y-31917051D01*
X28217051Y-32021580D01*
X28217048Y-32021584D01*
X28134919Y-32144498D01*
X28134912Y-32144511D01*
X28078343Y-32281082D01*
X28078340Y-32281092D01*
X28049500Y-32426079D01*
X28049500Y-32426082D01*
X28049500Y-32573918D01*
X28049500Y-32573920D01*
X28049499Y-32573920D01*
X26108200Y-32573920D01*
X26108200Y-23881365D01*
X26127885Y-23814326D01*
X26129098Y-23812474D01*
X26217090Y-23680785D01*
X26217090Y-23680784D01*
X26217094Y-23680779D01*
X26255330Y-23588466D01*
X26299169Y-23534066D01*
X26365462Y-23512000D01*
X26387476Y-23513773D01*
X26387493Y-23513603D01*
X26393556Y-23514200D01*
X26393558Y-23514200D01*
X26551244Y-23514200D01*
X26551245Y-23514199D01*
X26705897Y-23483437D01*
X26851579Y-23423094D01*
X26982689Y-23335489D01*
X27094189Y-23223989D01*
X27181794Y-23092879D01*
X27242137Y-22947197D01*
X27261997Y-22847353D01*
X27294381Y-22785443D01*
X27355097Y-22750869D01*
X27424866Y-22754608D01*
X27431048Y-22756976D01*
X27521003Y-22794237D01*
X27675653Y-22824999D01*
X27675656Y-22825000D01*
X27675658Y-22825000D01*
X27833344Y-22825000D01*
X27833345Y-22824999D01*
X27987997Y-22794237D01*
X28066585Y-22761685D01*
X28079748Y-22756233D01*
X28149217Y-22748764D01*
X28211696Y-22780039D01*
X28247348Y-22840128D01*
X28251200Y-22870794D01*
X28251200Y-27184434D01*
X28245872Y-27202578D01*
X28245534Y-27221490D01*
X28232035Y-27249699D01*
X28231515Y-27251473D01*
X28230301Y-27253325D01*
X28230300Y-27253327D01*
X28222822Y-27264518D01*
X28169209Y-27309322D01*
X28099884Y-27318028D01*
X28036857Y-27287872D01*
X28023508Y-27272463D01*
X28022953Y-27272919D01*
X28019086Y-27268207D01*
X27907592Y-27156713D01*
X27907588Y-27156710D01*
X27776485Y-27069109D01*
X27776472Y-27069102D01*
X27630801Y-27008764D01*
X27630789Y-27008761D01*
X27476145Y-26978000D01*
X27476142Y-26978000D01*
X27318458Y-26978000D01*
X27318455Y-26978000D01*
X27163810Y-27008761D01*
X27163798Y-27008764D01*
X27018127Y-27069102D01*
X27018114Y-27069109D01*
X26887011Y-27156710D01*
X26887007Y-27156713D01*
X26775513Y-27268207D01*
X26775510Y-27268211D01*
X26687909Y-27399314D01*
X26687902Y-27399327D01*
X26627564Y-27544998D01*
X26627561Y-27545010D01*
X26596800Y-27699653D01*
X26596800Y-27857346D01*
X26627561Y-28011989D01*
X26627564Y-28012001D01*
X26687902Y-28157672D01*
X26687909Y-28157685D01*
X26775510Y-28288788D01*
X26775513Y-28288792D01*
X26887007Y-28400286D01*
X26887011Y-28400289D01*
X27018114Y-28487890D01*
X27018127Y-28487897D01*
X27133883Y-28535844D01*
X27163803Y-28548237D01*
X27193746Y-28554193D01*
X27220464Y-28559508D01*
X27282375Y-28591893D01*
X27316949Y-28652608D01*
X27313210Y-28722378D01*
X27272344Y-28779050D01*
X27265166Y-28784225D01*
X27255616Y-28790606D01*
X27255607Y-28790613D01*
X27144113Y-28902107D01*
X27144110Y-28902111D01*
X27056509Y-29033214D01*
X27056502Y-29033227D01*
X26996164Y-29178898D01*
X26996161Y-29178910D01*
X26965400Y-29333553D01*
X26965400Y-29491246D01*
X26996161Y-29645889D01*
X26996164Y-29645901D01*
X27056502Y-29791572D01*
X27056509Y-29791585D01*
X27144110Y-29922688D01*
X27144113Y-29922692D01*
X27255607Y-30034186D01*
X27255611Y-30034189D01*
X27386714Y-30121790D01*
X27386727Y-30121797D01*
X27488647Y-30164013D01*
X27532403Y-30182137D01*
X27687053Y-30212899D01*
X27687056Y-30212900D01*
X27687058Y-30212900D01*
X27844744Y-30212900D01*
X27844745Y-30212899D01*
X27999397Y-30182137D01*
X28112066Y-30135467D01*
X28145072Y-30121797D01*
X28145072Y-30121796D01*
X28145079Y-30121794D01*
X28276189Y-30034189D01*
X28387689Y-29922689D01*
X28475294Y-29791579D01*
X28535637Y-29645897D01*
X28566400Y-29491242D01*
X28566400Y-29333558D01*
X28566400Y-29333555D01*
X28566399Y-29333553D01*
X28548884Y-29245500D01*
X28535637Y-29178903D01*
X28513563Y-29125611D01*
X28475297Y-29033227D01*
X28475290Y-29033214D01*
X28387689Y-28902111D01*
X28387686Y-28902107D01*
X28276192Y-28790613D01*
X28276188Y-28790610D01*
X28145085Y-28703009D01*
X28145072Y-28703002D01*
X27999401Y-28642664D01*
X27999392Y-28642662D01*
X27942733Y-28631391D01*
X27880823Y-28599005D01*
X27846249Y-28538289D01*
X27849990Y-28468520D01*
X27879151Y-28422187D01*
X27887823Y-28413495D01*
X27907589Y-28400289D01*
X28019089Y-28288789D01*
X28032924Y-28268083D01*
X28041502Y-28259487D01*
X28061919Y-28248309D01*
X28079782Y-28233380D01*
X28091993Y-28231845D01*
X28102789Y-28225936D01*
X28126009Y-28227571D01*
X28149106Y-28224670D01*
X28160208Y-28229981D01*
X28172486Y-28230846D01*
X28191137Y-28244777D01*
X28212135Y-28254822D01*
X28225492Y-28270236D01*
X28226047Y-28269781D01*
X28228317Y-28272547D01*
X28228464Y-28272657D01*
X28228511Y-28272784D01*
X28229913Y-28274492D01*
X28341407Y-28385986D01*
X28341411Y-28385989D01*
X28472514Y-28473590D01*
X28472527Y-28473597D01*
X28618198Y-28533935D01*
X28618203Y-28533937D01*
X28772853Y-28564699D01*
X28772856Y-28564700D01*
X28772858Y-28564700D01*
X28930544Y-28564700D01*
X28930545Y-28564699D01*
X29085197Y-28533937D01*
X29230879Y-28473594D01*
X29361989Y-28385989D01*
X29473489Y-28274489D01*
X29561094Y-28143379D01*
X29621437Y-27997697D01*
X29652200Y-27843042D01*
X29652200Y-27685358D01*
X29652200Y-27685355D01*
X29652199Y-27685353D01*
X29635637Y-27602092D01*
X29621437Y-27530703D01*
X29596696Y-27470972D01*
X29561097Y-27385027D01*
X29561090Y-27385014D01*
X29473098Y-27253325D01*
X29452220Y-27186647D01*
X29452200Y-27184434D01*
X29452200Y-19931596D01*
X29471885Y-19864557D01*
X29488514Y-19843920D01*
X34212212Y-15120221D01*
X34230699Y-15110126D01*
X34246373Y-15096048D01*
X34260749Y-15093718D01*
X34273533Y-15086738D01*
X34294548Y-15088240D01*
X34315343Y-15084871D01*
X34328695Y-15090682D01*
X34343225Y-15091722D01*
X34360091Y-15104348D01*
X34379407Y-15112756D01*
X34396006Y-15131235D01*
X34399158Y-15133594D01*
X34402993Y-15139012D01*
X34461711Y-15226889D01*
X34461713Y-15226891D01*
X34462102Y-15227473D01*
X34482980Y-15294151D01*
X34483000Y-15296365D01*
X34483000Y-20465597D01*
X34463315Y-20532636D01*
X34410511Y-20578391D01*
X34377052Y-20587410D01*
X34377132Y-20587811D01*
X34216510Y-20619761D01*
X34216498Y-20619764D01*
X34070827Y-20680102D01*
X34070814Y-20680109D01*
X33939711Y-20767710D01*
X33939707Y-20767713D01*
X33828213Y-20879207D01*
X33828210Y-20879211D01*
X33740609Y-21010314D01*
X33740602Y-21010327D01*
X33680264Y-21155998D01*
X33680261Y-21156010D01*
X33649500Y-21310653D01*
X33649500Y-21468346D01*
X33680261Y-21622989D01*
X33680264Y-21623001D01*
X33740602Y-21768672D01*
X33740609Y-21768685D01*
X33828210Y-21899788D01*
X33828213Y-21899792D01*
X33939707Y-22011286D01*
X33939711Y-22011289D01*
X34070814Y-22098890D01*
X34070827Y-22098897D01*
X34166183Y-22138394D01*
X34216503Y-22159237D01*
X34274767Y-22170826D01*
X34377132Y-22191189D01*
X34376905Y-22192325D01*
X34435929Y-22216150D01*
X34476295Y-22273180D01*
X34483000Y-22313402D01*
X34483000Y-26425359D01*
X34463315Y-26492398D01*
X34446681Y-26513040D01*
X34378213Y-26581507D01*
X34378210Y-26581511D01*
X34290609Y-26712614D01*
X34290602Y-26712627D01*
X34230264Y-26858298D01*
X34230261Y-26858310D01*
X34199500Y-27012953D01*
X34199500Y-27170646D01*
X34230261Y-27325289D01*
X34230264Y-27325301D01*
X34290602Y-27470972D01*
X34290609Y-27470985D01*
X34378210Y-27602088D01*
X34378213Y-27602092D01*
X34489707Y-27713586D01*
X34489711Y-27713589D01*
X34620814Y-27801190D01*
X34620827Y-27801197D01*
X34721861Y-27843046D01*
X34766503Y-27861537D01*
X34921153Y-27892299D01*
X34921156Y-27892300D01*
X34921158Y-27892300D01*
X35078843Y-27892300D01*
X35094452Y-27889194D01*
X35103807Y-27887334D01*
X35173399Y-27893561D01*
X35228577Y-27936423D01*
X35251822Y-28002312D01*
X35252000Y-28008951D01*
X35252000Y-29965603D01*
X35232315Y-30032642D01*
X35215681Y-30053284D01*
X34985339Y-30283625D01*
X34924016Y-30317110D01*
X34921850Y-30317561D01*
X34766508Y-30348461D01*
X34766498Y-30348464D01*
X34620827Y-30408802D01*
X34620814Y-30408809D01*
X34489711Y-30496410D01*
X34489707Y-30496413D01*
X34378213Y-30607907D01*
X34378210Y-30607911D01*
X34290609Y-30739014D01*
X34290602Y-30739027D01*
X34230264Y-30884698D01*
X34230261Y-30884710D01*
X34199500Y-31039353D01*
X34199500Y-31197046D01*
X34230261Y-31351689D01*
X34230264Y-31351701D01*
X34290602Y-31497372D01*
X34290609Y-31497385D01*
X34378210Y-31628488D01*
X34378213Y-31628492D01*
X34489707Y-31739986D01*
X34489711Y-31739989D01*
X34620814Y-31827590D01*
X34620827Y-31827597D01*
X34759137Y-31884886D01*
X34766503Y-31887937D01*
X34899933Y-31914478D01*
X34921153Y-31918699D01*
X34921156Y-31918700D01*
X34921158Y-31918700D01*
X35078844Y-31918700D01*
X35078845Y-31918699D01*
X35233497Y-31887937D01*
X35346166Y-31841267D01*
X35379172Y-31827597D01*
X35379172Y-31827596D01*
X35379179Y-31827594D01*
X35510289Y-31739989D01*
X35621789Y-31628489D01*
X35660531Y-31570506D01*
X35714141Y-31525702D01*
X35783466Y-31516993D01*
X35811078Y-31524833D01*
X35885203Y-31555537D01*
X36039853Y-31586299D01*
X36039856Y-31586300D01*
X36039858Y-31586300D01*
X36197544Y-31586300D01*
X36197545Y-31586299D01*
X36352197Y-31555537D01*
X36464866Y-31508867D01*
X36497872Y-31495197D01*
X36497872Y-31495196D01*
X36497879Y-31495194D01*
X36628989Y-31407589D01*
X36649183Y-31387395D01*
X36728019Y-31308560D01*
X36789342Y-31275075D01*
X36859034Y-31280059D01*
X36914967Y-31321931D01*
X36939384Y-31387395D01*
X36939700Y-31396241D01*
X36939700Y-31835230D01*
X36939699Y-31835248D01*
X36939699Y-32000954D01*
X36939698Y-32000954D01*
X36945225Y-32021580D01*
X36980623Y-32153685D01*
X36980624Y-32153687D01*
X36980623Y-32153687D01*
X36986126Y-32163217D01*
X36986127Y-32163218D01*
X37059677Y-32290612D01*
X37059681Y-32290617D01*
X37178549Y-32409485D01*
X37178555Y-32409490D01*
X37699825Y-32930760D01*
X37733310Y-32992083D01*
X37733761Y-32994249D01*
X37764661Y-33149591D01*
X37764664Y-33149601D01*
X37825002Y-33295272D01*
X37825009Y-33295285D01*
X37912610Y-33426388D01*
X37912613Y-33426392D01*
X38024107Y-33537886D01*
X38024111Y-33537889D01*
X38155214Y-33625490D01*
X38155227Y-33625497D01*
X38230177Y-33656542D01*
X38284581Y-33700383D01*
X38306646Y-33766677D01*
X38292765Y-33826621D01*
X38292937Y-33826693D01*
X38292510Y-33827723D01*
X38292088Y-33829547D01*
X38290606Y-33832318D01*
X38230264Y-33977998D01*
X38230261Y-33978010D01*
X38199500Y-34132653D01*
X38199500Y-35554059D01*
X38179815Y-35621098D01*
X38163181Y-35641740D01*
X37606313Y-36198607D01*
X37606310Y-36198611D01*
X37518709Y-36329714D01*
X37518702Y-36329727D01*
X37458364Y-36475398D01*
X37458361Y-36475410D01*
X37427600Y-36630053D01*
X37427600Y-36787746D01*
X37458361Y-36942389D01*
X37458364Y-36942401D01*
X37518702Y-37088072D01*
X37518709Y-37088085D01*
X37606310Y-37219188D01*
X37606313Y-37219192D01*
X37717807Y-37330686D01*
X37717811Y-37330689D01*
X37848914Y-37418290D01*
X37848927Y-37418297D01*
X37994598Y-37478635D01*
X37994603Y-37478637D01*
X38149228Y-37509394D01*
X38149253Y-37509399D01*
X38149256Y-37509400D01*
X38149258Y-37509400D01*
X38306944Y-37509400D01*
X38306945Y-37509399D01*
X38461597Y-37478637D01*
X38607279Y-37418294D01*
X38738389Y-37330689D01*
X39328873Y-36740205D01*
X39348794Y-36729327D01*
X39366088Y-36714620D01*
X39378874Y-36712902D01*
X39390196Y-36706720D01*
X39412838Y-36708339D01*
X39435336Y-36705317D01*
X39447019Y-36710783D01*
X39459887Y-36711704D01*
X39478059Y-36725307D01*
X39498620Y-36734928D01*
X39505493Y-36745844D01*
X39515821Y-36753575D01*
X39523754Y-36774844D01*
X39535849Y-36794053D01*
X39537045Y-36810481D01*
X39540238Y-36819040D01*
X39540549Y-36829033D01*
X39540416Y-36843304D01*
X39538799Y-36849343D01*
X39538799Y-37007457D01*
X39538800Y-37007460D01*
X39538800Y-37018065D01*
X39538800Y-40393034D01*
X39519115Y-40460073D01*
X39517902Y-40461925D01*
X39429909Y-40593614D01*
X39429902Y-40593627D01*
X39369564Y-40739298D01*
X39369561Y-40739310D01*
X39338800Y-40893953D01*
X39338800Y-40966148D01*
X39319115Y-41033187D01*
X39266311Y-41078942D01*
X39253808Y-41083853D01*
X39241304Y-41087996D01*
X39241297Y-41087999D01*
X39096956Y-41177031D01*
X38977032Y-41296955D01*
X38977029Y-41296959D01*
X38888001Y-41441294D01*
X38887996Y-41441305D01*
X38834651Y-41602290D01*
X38824500Y-41701647D01*
X38824500Y-42298337D01*
X38824501Y-42298355D01*
X38834650Y-42397707D01*
X38834651Y-42397710D01*
X38862463Y-42481640D01*
X38887997Y-42558697D01*
X38956038Y-42669009D01*
X38974500Y-42734104D01*
X38974500Y-46906646D01*
X39005261Y-47061289D01*
X39005264Y-47061301D01*
X39065602Y-47206972D01*
X39065609Y-47206985D01*
X39153209Y-47338087D01*
X39153210Y-47338088D01*
X39153211Y-47338089D01*
X39311611Y-47496489D01*
X39423111Y-47607989D01*
X39554221Y-47695594D01*
X39657233Y-47738262D01*
X39699902Y-47755937D01*
X39854552Y-47786699D01*
X39854555Y-47786700D01*
X40018334Y-47786700D01*
X40018334Y-47788810D01*
X40077569Y-47800031D01*
X40128289Y-47848086D01*
X40145100Y-47910427D01*
X40145100Y-49993130D01*
X40126853Y-50055269D01*
X40127695Y-50055719D01*
X40125535Y-50059759D01*
X40125415Y-50060169D01*
X40124878Y-50060987D01*
X40124823Y-50061090D01*
X40072021Y-50188567D01*
X40072018Y-50188577D01*
X40045100Y-50323903D01*
X40045100Y-50343381D01*
X40042717Y-50367574D01*
X40035400Y-50404356D01*
X40035400Y-50562046D01*
X40066161Y-50716689D01*
X40066164Y-50716701D01*
X40126502Y-50862372D01*
X40126509Y-50862385D01*
X40214110Y-50993488D01*
X40214113Y-50993492D01*
X40325607Y-51104986D01*
X40325611Y-51104989D01*
X40456714Y-51192590D01*
X40456727Y-51192597D01*
X40559094Y-51234998D01*
X40602403Y-51252937D01*
X40757053Y-51283699D01*
X40757056Y-51283700D01*
X40880400Y-51283700D01*
X40947439Y-51303385D01*
X40993194Y-51356189D01*
X41004400Y-51407700D01*
X41004400Y-56206034D01*
X40984715Y-56273073D01*
X40983502Y-56274925D01*
X40895509Y-56406614D01*
X40895502Y-56406627D01*
X40835164Y-56552298D01*
X40835161Y-56552310D01*
X40804400Y-56706953D01*
X40804400Y-56864646D01*
X40835161Y-57019289D01*
X40835164Y-57019301D01*
X40895502Y-57164972D01*
X40895509Y-57164985D01*
X40983110Y-57296088D01*
X40983113Y-57296092D01*
X41094607Y-57407586D01*
X41094611Y-57407589D01*
X41225714Y-57495190D01*
X41225727Y-57495197D01*
X41371398Y-57555535D01*
X41371403Y-57555537D01*
X41526053Y-57586299D01*
X41526056Y-57586300D01*
X41526058Y-57586300D01*
X41683744Y-57586300D01*
X41683745Y-57586299D01*
X41838397Y-57555537D01*
X41984079Y-57495194D01*
X42115189Y-57407589D01*
X42226689Y-57296089D01*
X42314294Y-57164979D01*
X42374637Y-57019297D01*
X42405400Y-56864642D01*
X42405400Y-56706958D01*
X42405400Y-56706955D01*
X42405399Y-56706953D01*
X42374638Y-56552310D01*
X42374637Y-56552303D01*
X42363775Y-56526079D01*
X42314297Y-56406627D01*
X42314290Y-56406614D01*
X42226298Y-56274925D01*
X42205420Y-56208247D01*
X42205400Y-56206034D01*
X42205400Y-52665893D01*
X42225085Y-52598854D01*
X42277889Y-52553099D01*
X42305208Y-52544276D01*
X42348574Y-52535649D01*
X42418913Y-52521658D01*
X42555495Y-52465084D01*
X42678416Y-52382951D01*
X42782951Y-52278416D01*
X42865084Y-52155495D01*
X42921658Y-52018913D01*
X42948955Y-51881685D01*
X42950500Y-51873920D01*
X42950500Y-51726079D01*
X42921659Y-51581092D01*
X42921658Y-51581091D01*
X42921658Y-51581087D01*
X42915598Y-51566457D01*
X42865087Y-51444511D01*
X42865080Y-51444498D01*
X42782951Y-51321584D01*
X42782948Y-51321580D01*
X42678419Y-51217051D01*
X42678415Y-51217048D01*
X42555501Y-51134919D01*
X42555488Y-51134912D01*
X42418917Y-51078343D01*
X42418908Y-51078341D01*
X42305207Y-51055723D01*
X42243297Y-51023337D01*
X42208723Y-50962621D01*
X42205400Y-50934106D01*
X42205400Y-47670453D01*
X46824100Y-47670453D01*
X46824100Y-47828146D01*
X46854861Y-47982789D01*
X46854864Y-47982801D01*
X46915202Y-48128472D01*
X46915209Y-48128485D01*
X47002810Y-48259588D01*
X47002813Y-48259592D01*
X47114307Y-48371086D01*
X47114311Y-48371089D01*
X47245414Y-48458690D01*
X47245427Y-48458697D01*
X47391098Y-48519035D01*
X47391103Y-48519037D01*
X47545753Y-48549799D01*
X47545756Y-48549800D01*
X47545758Y-48549800D01*
X47703444Y-48549800D01*
X47703445Y-48549799D01*
X47858097Y-48519037D01*
X48003779Y-48458694D01*
X48134889Y-48371089D01*
X48246389Y-48259589D01*
X48333994Y-48128479D01*
X48394337Y-47982797D01*
X48425100Y-47828142D01*
X48425100Y-47670458D01*
X48425100Y-47670455D01*
X48425099Y-47670453D01*
X48394338Y-47515810D01*
X48394337Y-47515803D01*
X48386337Y-47496488D01*
X48333997Y-47370127D01*
X48333990Y-47370114D01*
X48246389Y-47239011D01*
X48246386Y-47239007D01*
X48134892Y-47127513D01*
X48134888Y-47127510D01*
X48003785Y-47039909D01*
X48003772Y-47039902D01*
X47858101Y-46979564D01*
X47858089Y-46979561D01*
X47703445Y-46948800D01*
X47703442Y-46948800D01*
X47545758Y-46948800D01*
X47545755Y-46948800D01*
X47391110Y-46979561D01*
X47391098Y-46979564D01*
X47245427Y-47039902D01*
X47245414Y-47039909D01*
X47114311Y-47127510D01*
X47114307Y-47127513D01*
X47002813Y-47239007D01*
X47002810Y-47239011D01*
X46915209Y-47370114D01*
X46915202Y-47370127D01*
X46854864Y-47515798D01*
X46854861Y-47515810D01*
X46824100Y-47670453D01*
X42205400Y-47670453D01*
X42205400Y-45109041D01*
X43099500Y-45109041D01*
X43099500Y-45390958D01*
X43136295Y-45670439D01*
X43209259Y-45942743D01*
X43317135Y-46203179D01*
X43317140Y-46203190D01*
X43458083Y-46447309D01*
X43458088Y-46447317D01*
X43605660Y-46639635D01*
X43629704Y-46670970D01*
X43829029Y-46870295D01*
X43829033Y-46870298D01*
X43829035Y-46870300D01*
X44052683Y-47041912D01*
X44052690Y-47041916D01*
X44296809Y-47182859D01*
X44296814Y-47182861D01*
X44296817Y-47182863D01*
X44557261Y-47290742D01*
X44829558Y-47363704D01*
X45109049Y-47400500D01*
X45109056Y-47400500D01*
X45390944Y-47400500D01*
X45390951Y-47400500D01*
X45670442Y-47363704D01*
X45942739Y-47290742D01*
X46203183Y-47182863D01*
X46447317Y-47041912D01*
X46670965Y-46870300D01*
X46870300Y-46670965D01*
X47041912Y-46447317D01*
X47182863Y-46203183D01*
X47290742Y-45942739D01*
X47363704Y-45670442D01*
X47400500Y-45390951D01*
X47400500Y-45109049D01*
X47363704Y-44829558D01*
X47290742Y-44557261D01*
X47182863Y-44296817D01*
X47182861Y-44296814D01*
X47182859Y-44296809D01*
X47041916Y-44052690D01*
X47041912Y-44052683D01*
X46870300Y-43829035D01*
X46870298Y-43829033D01*
X46870295Y-43829029D01*
X46670970Y-43629704D01*
X46670965Y-43629700D01*
X46447317Y-43458088D01*
X46447311Y-43458084D01*
X46447309Y-43458083D01*
X46203190Y-43317140D01*
X46203179Y-43317135D01*
X45942743Y-43209259D01*
X45670439Y-43136295D01*
X45390958Y-43099500D01*
X45390951Y-43099500D01*
X45109049Y-43099500D01*
X45109041Y-43099500D01*
X44829560Y-43136295D01*
X44557256Y-43209259D01*
X44296820Y-43317135D01*
X44296809Y-43317140D01*
X44052690Y-43458083D01*
X44052682Y-43458089D01*
X43829029Y-43629704D01*
X43629704Y-43829029D01*
X43458089Y-44052682D01*
X43458083Y-44052690D01*
X43317140Y-44296809D01*
X43317135Y-44296820D01*
X43209259Y-44557256D01*
X43136295Y-44829560D01*
X43099500Y-45109041D01*
X42205400Y-45109041D01*
X42205400Y-38635696D01*
X42225085Y-38568657D01*
X42241714Y-38548019D01*
X43208406Y-37581327D01*
X43208411Y-37581324D01*
X43218614Y-37571120D01*
X43218616Y-37571120D01*
X43330420Y-37459316D01*
X43388106Y-37359400D01*
X43409477Y-37322385D01*
X43450401Y-37169657D01*
X43450401Y-37011543D01*
X43450401Y-37003948D01*
X43450400Y-37003930D01*
X43450400Y-36952307D01*
X43470085Y-36885268D01*
X43522889Y-36839513D01*
X43550209Y-36830690D01*
X43627525Y-36815310D01*
X43702297Y-36800437D01*
X43847979Y-36740094D01*
X43979089Y-36652489D01*
X44090589Y-36540989D01*
X44178194Y-36409879D01*
X44238537Y-36264197D01*
X44269300Y-36109542D01*
X44269300Y-35951858D01*
X44269300Y-35951855D01*
X44269299Y-35951853D01*
X44259858Y-35904389D01*
X44238537Y-35797203D01*
X44228630Y-35773285D01*
X44178197Y-35651527D01*
X44178190Y-35651514D01*
X44090589Y-35520411D01*
X44090586Y-35520407D01*
X43979092Y-35408913D01*
X43979088Y-35408910D01*
X43847985Y-35321309D01*
X43847972Y-35321302D01*
X43702301Y-35260964D01*
X43702291Y-35260961D01*
X43687991Y-35258117D01*
X43626081Y-35225732D01*
X43591506Y-35165016D01*
X43595246Y-35095247D01*
X43636113Y-35038575D01*
X43701131Y-35012994D01*
X43712183Y-35012500D01*
X45102100Y-35012500D01*
X45169139Y-35032185D01*
X45214894Y-35084989D01*
X45226100Y-35136500D01*
X45226100Y-37529660D01*
X45206415Y-37596699D01*
X45153611Y-37642454D01*
X45126291Y-37651277D01*
X45041410Y-37668161D01*
X45041398Y-37668164D01*
X44895727Y-37728502D01*
X44895714Y-37728509D01*
X44764611Y-37816110D01*
X44764607Y-37816113D01*
X44653113Y-37927607D01*
X44653110Y-37927611D01*
X44565509Y-38058714D01*
X44565502Y-38058727D01*
X44505164Y-38204398D01*
X44505161Y-38204410D01*
X44474400Y-38359053D01*
X44474400Y-38516746D01*
X44505161Y-38671389D01*
X44505164Y-38671401D01*
X44565502Y-38817072D01*
X44565509Y-38817085D01*
X44653110Y-38948188D01*
X44653113Y-38948192D01*
X44764607Y-39059686D01*
X44764611Y-39059689D01*
X44895714Y-39147290D01*
X44895727Y-39147297D01*
X44963295Y-39175284D01*
X45041403Y-39207637D01*
X45126293Y-39224522D01*
X45188202Y-39256906D01*
X45222776Y-39317621D01*
X45226100Y-39346139D01*
X45226100Y-41317730D01*
X45226099Y-41317748D01*
X45226099Y-41483454D01*
X45226098Y-41483454D01*
X45226099Y-41483457D01*
X45267023Y-41636185D01*
X45267024Y-41636186D01*
X45284280Y-41666074D01*
X45284280Y-41666077D01*
X45284282Y-41666077D01*
X45346079Y-41773114D01*
X45346081Y-41773117D01*
X45464949Y-41891985D01*
X45464955Y-41891990D01*
X49373981Y-45801016D01*
X49407466Y-45862339D01*
X49410300Y-45888697D01*
X49410300Y-48488998D01*
X49390615Y-48556037D01*
X49337811Y-48601792D01*
X49268653Y-48611736D01*
X49262110Y-48610616D01*
X49227842Y-48603800D01*
X49070158Y-48603800D01*
X49070155Y-48603800D01*
X48915510Y-48634561D01*
X48915498Y-48634564D01*
X48769827Y-48694902D01*
X48769814Y-48694909D01*
X48638711Y-48782510D01*
X48638707Y-48782513D01*
X48527213Y-48894007D01*
X48527210Y-48894011D01*
X48439609Y-49025114D01*
X48439602Y-49025127D01*
X48379264Y-49170798D01*
X48379261Y-49170810D01*
X48348500Y-49325453D01*
X48348500Y-49483146D01*
X48379261Y-49637789D01*
X48379264Y-49637801D01*
X48439602Y-49783472D01*
X48439609Y-49783485D01*
X48527210Y-49914588D01*
X48527213Y-49914592D01*
X48638707Y-50026086D01*
X48638711Y-50026089D01*
X48769814Y-50113690D01*
X48769827Y-50113697D01*
X48887698Y-50162520D01*
X48915503Y-50174037D01*
X49035892Y-50197984D01*
X49070153Y-50204799D01*
X49070156Y-50204800D01*
X49070158Y-50204800D01*
X49227843Y-50204800D01*
X49244047Y-50201576D01*
X49262107Y-50197984D01*
X49331699Y-50204211D01*
X49386877Y-50247073D01*
X49410122Y-50312962D01*
X49410300Y-50319601D01*
X49410300Y-51373236D01*
X49390615Y-51440275D01*
X49337811Y-51486030D01*
X49268653Y-51495974D01*
X49205097Y-51466949D01*
X49167323Y-51408171D01*
X49164683Y-51397428D01*
X49139138Y-51269008D01*
X49139137Y-51269007D01*
X49139137Y-51269003D01*
X49132482Y-51252937D01*
X49078797Y-51123327D01*
X49078790Y-51123314D01*
X48991189Y-50992211D01*
X48991186Y-50992207D01*
X48879692Y-50880713D01*
X48879688Y-50880710D01*
X48748585Y-50793109D01*
X48748572Y-50793102D01*
X48602901Y-50732764D01*
X48602889Y-50732761D01*
X48448245Y-50702000D01*
X48448242Y-50702000D01*
X48290558Y-50702000D01*
X48290555Y-50702000D01*
X48135910Y-50732761D01*
X48135898Y-50732764D01*
X47990227Y-50793102D01*
X47990214Y-50793109D01*
X47859111Y-50880710D01*
X47859107Y-50880713D01*
X47747613Y-50992207D01*
X47747610Y-50992211D01*
X47660009Y-51123314D01*
X47660002Y-51123327D01*
X47599664Y-51268998D01*
X47599661Y-51269010D01*
X47568900Y-51423653D01*
X47568900Y-51581346D01*
X47599661Y-51735989D01*
X47599664Y-51736001D01*
X47660002Y-51881672D01*
X47660009Y-51881685D01*
X47747610Y-52012788D01*
X47747613Y-52012792D01*
X47859107Y-52124286D01*
X47859111Y-52124289D01*
X47990214Y-52211890D01*
X47990227Y-52211897D01*
X48106145Y-52259911D01*
X48135903Y-52272237D01*
X48290553Y-52302999D01*
X48290556Y-52303000D01*
X48290558Y-52303000D01*
X48448244Y-52303000D01*
X48448245Y-52302999D01*
X48602897Y-52272237D01*
X48748579Y-52211894D01*
X48879689Y-52124289D01*
X48991189Y-52012789D01*
X49078794Y-51881679D01*
X49139137Y-51735997D01*
X49152895Y-51666829D01*
X49164683Y-51607572D01*
X49197068Y-51545661D01*
X49257784Y-51511087D01*
X49327553Y-51514826D01*
X49384225Y-51555693D01*
X49409806Y-51620711D01*
X49410300Y-51631763D01*
X49410300Y-54672430D01*
X49410299Y-54672448D01*
X49410299Y-54838154D01*
X49410298Y-54838154D01*
X49451224Y-54990889D01*
X49451225Y-54990890D01*
X49468930Y-55021555D01*
X49468931Y-55021556D01*
X49530277Y-55127812D01*
X49530281Y-55127817D01*
X49649149Y-55246685D01*
X49649155Y-55246690D01*
X50528087Y-56125622D01*
X50561572Y-56186945D01*
X50556588Y-56256635D01*
X50505909Y-56392514D01*
X50505908Y-56392516D01*
X50499501Y-56452116D01*
X50499500Y-56452135D01*
X50499500Y-57547870D01*
X50499501Y-57547876D01*
X50505908Y-57607483D01*
X50556202Y-57742328D01*
X50556206Y-57742335D01*
X50642452Y-57857544D01*
X50642455Y-57857547D01*
X50757664Y-57943793D01*
X50757671Y-57943797D01*
X50892517Y-57994091D01*
X50892516Y-57994091D01*
X50899444Y-57994835D01*
X50952127Y-58000500D01*
X52047872Y-58000499D01*
X52107483Y-57994091D01*
X52242331Y-57943796D01*
X52254110Y-57934977D01*
X52319570Y-57910558D01*
X52375872Y-57919680D01*
X52478165Y-57962051D01*
X52478169Y-57962051D01*
X52478170Y-57962052D01*
X52671456Y-58000500D01*
X52671459Y-58000500D01*
X52868543Y-58000500D01*
X52998582Y-57974632D01*
X53061835Y-57962051D01*
X53243914Y-57886632D01*
X53336109Y-57825029D01*
X53402786Y-57804151D01*
X53470166Y-57822635D01*
X53473891Y-57825029D01*
X53566080Y-57886628D01*
X53566086Y-57886632D01*
X53566088Y-57886633D01*
X53566092Y-57886635D01*
X53748160Y-57962049D01*
X53748165Y-57962051D01*
X53748169Y-57962051D01*
X53748170Y-57962052D01*
X53941456Y-58000500D01*
X53941459Y-58000500D01*
X54138543Y-58000500D01*
X54268582Y-57974632D01*
X54331835Y-57962051D01*
X54513914Y-57886632D01*
X54606109Y-57825029D01*
X54672786Y-57804151D01*
X54740166Y-57822635D01*
X54743891Y-57825029D01*
X54836080Y-57886628D01*
X54836086Y-57886632D01*
X54836088Y-57886633D01*
X54836092Y-57886635D01*
X55018160Y-57962049D01*
X55018165Y-57962051D01*
X55018169Y-57962051D01*
X55018170Y-57962052D01*
X55211456Y-58000500D01*
X55211459Y-58000500D01*
X55408543Y-58000500D01*
X55538582Y-57974632D01*
X55601835Y-57962051D01*
X55783914Y-57886632D01*
X55876109Y-57825029D01*
X55942786Y-57804151D01*
X56010166Y-57822635D01*
X56013891Y-57825029D01*
X56106080Y-57886628D01*
X56106086Y-57886632D01*
X56106088Y-57886633D01*
X56106092Y-57886635D01*
X56288160Y-57962049D01*
X56288165Y-57962051D01*
X56288169Y-57962051D01*
X56288170Y-57962052D01*
X56481456Y-58000500D01*
X56481459Y-58000500D01*
X56678543Y-58000500D01*
X56808582Y-57974632D01*
X56871835Y-57962051D01*
X57053914Y-57886632D01*
X57217782Y-57777139D01*
X57357139Y-57637782D01*
X57466632Y-57473914D01*
X57542051Y-57291835D01*
X57558485Y-57209216D01*
X57580500Y-57098543D01*
X57580500Y-56901456D01*
X57542052Y-56708170D01*
X57542051Y-56708169D01*
X57542051Y-56708165D01*
X57541549Y-56706953D01*
X57466635Y-56526092D01*
X57466628Y-56526079D01*
X57357139Y-56362218D01*
X57357136Y-56362214D01*
X57217785Y-56222863D01*
X57217781Y-56222860D01*
X57053920Y-56113371D01*
X57053907Y-56113364D01*
X56871839Y-56037950D01*
X56871829Y-56037947D01*
X56678543Y-55999500D01*
X56678541Y-55999500D01*
X56481459Y-55999500D01*
X56481457Y-55999500D01*
X56288170Y-56037947D01*
X56288160Y-56037950D01*
X56106087Y-56113366D01*
X56103384Y-56115173D01*
X56101753Y-56115683D01*
X56100716Y-56116238D01*
X56100610Y-56116041D01*
X56036705Y-56136046D01*
X55969326Y-56117557D01*
X55922640Y-56065575D01*
X55910500Y-56012066D01*
X55910500Y-51389653D01*
X56174300Y-51389653D01*
X56174300Y-51547346D01*
X56205061Y-51701989D01*
X56205064Y-51702001D01*
X56265402Y-51847672D01*
X56265409Y-51847685D01*
X56326330Y-51938859D01*
X56347208Y-52005537D01*
X56328723Y-52072917D01*
X56326330Y-52076641D01*
X56265409Y-52167814D01*
X56265402Y-52167827D01*
X56205064Y-52313498D01*
X56205061Y-52313510D01*
X56174300Y-52468153D01*
X56174300Y-52625846D01*
X56205061Y-52780489D01*
X56205064Y-52780501D01*
X56265402Y-52926172D01*
X56265409Y-52926185D01*
X56353010Y-53057288D01*
X56353013Y-53057292D01*
X56464507Y-53168786D01*
X56464511Y-53168789D01*
X56595614Y-53256390D01*
X56595627Y-53256397D01*
X56741298Y-53316735D01*
X56741303Y-53316737D01*
X56895953Y-53347499D01*
X56895956Y-53347500D01*
X56895958Y-53347500D01*
X57053644Y-53347500D01*
X57053645Y-53347499D01*
X57208297Y-53316737D01*
X57353979Y-53256394D01*
X57485089Y-53168789D01*
X57596589Y-53057289D01*
X57684194Y-52926179D01*
X57744537Y-52780497D01*
X57775300Y-52625842D01*
X57775300Y-52468158D01*
X57775300Y-52468155D01*
X57775299Y-52468153D01*
X57768097Y-52431946D01*
X57744537Y-52313503D01*
X57730003Y-52278415D01*
X57684197Y-52167827D01*
X57684193Y-52167820D01*
X57675953Y-52155488D01*
X57623268Y-52076638D01*
X57602391Y-52009964D01*
X57620875Y-51942584D01*
X57623242Y-51938899D01*
X57684194Y-51847679D01*
X57744537Y-51701997D01*
X57775300Y-51547342D01*
X57775300Y-51389658D01*
X57775300Y-51389655D01*
X57775299Y-51389653D01*
X57772033Y-51373236D01*
X57744537Y-51235003D01*
X57725814Y-51189801D01*
X57684197Y-51089327D01*
X57684190Y-51089314D01*
X57596589Y-50958211D01*
X57596586Y-50958207D01*
X57485092Y-50846713D01*
X57485088Y-50846710D01*
X57353985Y-50759109D01*
X57353972Y-50759102D01*
X57208301Y-50698764D01*
X57208289Y-50698761D01*
X57053645Y-50668000D01*
X57053642Y-50668000D01*
X56895958Y-50668000D01*
X56895955Y-50668000D01*
X56741310Y-50698761D01*
X56741298Y-50698764D01*
X56595627Y-50759102D01*
X56595614Y-50759109D01*
X56464511Y-50846710D01*
X56464507Y-50846713D01*
X56353013Y-50958207D01*
X56353010Y-50958211D01*
X56265409Y-51089314D01*
X56265402Y-51089327D01*
X56205064Y-51234998D01*
X56205061Y-51235010D01*
X56174300Y-51389653D01*
X55910500Y-51389653D01*
X55910500Y-50623668D01*
X55930185Y-50556629D01*
X55982989Y-50510874D01*
X56052147Y-50500930D01*
X56058674Y-50502047D01*
X56087995Y-50507880D01*
X56099657Y-50510200D01*
X56099658Y-50510200D01*
X56257344Y-50510200D01*
X56257345Y-50510199D01*
X56411997Y-50479437D01*
X56557679Y-50419094D01*
X56688789Y-50331489D01*
X56800289Y-50219989D01*
X56887894Y-50088879D01*
X56899405Y-50061090D01*
X56913902Y-50026089D01*
X56948237Y-49943197D01*
X56979000Y-49788542D01*
X56979000Y-49630858D01*
X56979000Y-49630855D01*
X56978999Y-49630853D01*
X56948238Y-49476210D01*
X56948237Y-49476203D01*
X56940546Y-49457635D01*
X56887897Y-49330527D01*
X56887890Y-49330514D01*
X56800289Y-49199411D01*
X56800286Y-49199407D01*
X56688792Y-49087913D01*
X56688788Y-49087910D01*
X56557685Y-49000309D01*
X56557672Y-49000302D01*
X56412001Y-48939964D01*
X56411989Y-48939961D01*
X56257345Y-48909200D01*
X56257342Y-48909200D01*
X56116697Y-48909200D01*
X56049658Y-48889515D01*
X56003903Y-48836711D01*
X55993959Y-48767553D01*
X56022984Y-48703997D01*
X56029016Y-48697519D01*
X56336537Y-48389998D01*
X56771520Y-47955016D01*
X56771521Y-47955013D01*
X56774949Y-47951586D01*
X56836272Y-47918101D01*
X56905964Y-47923085D01*
X56961897Y-47964957D01*
X56968167Y-47974167D01*
X57057288Y-48118656D01*
X57181344Y-48242712D01*
X57330666Y-48334814D01*
X57497203Y-48389999D01*
X57599991Y-48400500D01*
X58350008Y-48400499D01*
X58350016Y-48400498D01*
X58350019Y-48400498D01*
X58406302Y-48394748D01*
X58452797Y-48389999D01*
X58619334Y-48334814D01*
X58768656Y-48242712D01*
X58892712Y-48118656D01*
X58984814Y-47969334D01*
X59039999Y-47802797D01*
X59050500Y-47700009D01*
X59050499Y-46299992D01*
X59047598Y-46271597D01*
X59039999Y-46197203D01*
X59039998Y-46197200D01*
X58990871Y-46048946D01*
X58984814Y-46030666D01*
X58892712Y-45881344D01*
X58768656Y-45757288D01*
X58675888Y-45700069D01*
X58619336Y-45665187D01*
X58619331Y-45665185D01*
X58617862Y-45664698D01*
X58452797Y-45610001D01*
X58452795Y-45610000D01*
X58350016Y-45599500D01*
X57601197Y-45599500D01*
X57534158Y-45579815D01*
X57513516Y-45563181D01*
X56782990Y-44832655D01*
X56782988Y-44832652D01*
X56664117Y-44713781D01*
X56664116Y-44713780D01*
X56577304Y-44663660D01*
X56577304Y-44663659D01*
X56577300Y-44663658D01*
X56527185Y-44634723D01*
X56374457Y-44593799D01*
X56216343Y-44593799D01*
X56208747Y-44593799D01*
X56208731Y-44593800D01*
X55744000Y-44593800D01*
X55676961Y-44574115D01*
X55631206Y-44521311D01*
X55620000Y-44469800D01*
X55620000Y-43995044D01*
X55616405Y-43981623D01*
X55616405Y-43981622D01*
X55583796Y-43859927D01*
X55579077Y-43842315D01*
X55550139Y-43792195D01*
X55500020Y-43705384D01*
X55388216Y-43593580D01*
X55388215Y-43593579D01*
X55383885Y-43589249D01*
X55383874Y-43589239D01*
X53917890Y-42123255D01*
X53917888Y-42123252D01*
X53799017Y-42004381D01*
X53799016Y-42004380D01*
X53712204Y-41954260D01*
X53712204Y-41954259D01*
X53712200Y-41954258D01*
X53662085Y-41925323D01*
X53509357Y-41884399D01*
X53351243Y-41884399D01*
X53343647Y-41884399D01*
X53343631Y-41884400D01*
X52426770Y-41884400D01*
X52426754Y-41884399D01*
X52419158Y-41884399D01*
X52261043Y-41884399D01*
X52184679Y-41904861D01*
X52108314Y-41925323D01*
X52108309Y-41925326D01*
X51971390Y-42004375D01*
X51971382Y-42004381D01*
X51087584Y-42888181D01*
X51026261Y-42921666D01*
X50999903Y-42924500D01*
X50668384Y-42924500D01*
X50649145Y-42926248D01*
X50597807Y-42930913D01*
X50435393Y-42981522D01*
X50289811Y-43069530D01*
X50289810Y-43069531D01*
X50195320Y-43164022D01*
X50133997Y-43197507D01*
X50064305Y-43192523D01*
X50019958Y-43164022D01*
X47446119Y-40590183D01*
X47412634Y-40528860D01*
X47409800Y-40502502D01*
X47409800Y-39159553D01*
X49149900Y-39159553D01*
X49149900Y-39317246D01*
X49180661Y-39471889D01*
X49180664Y-39471901D01*
X49241002Y-39617572D01*
X49241009Y-39617585D01*
X49328610Y-39748688D01*
X49328613Y-39748692D01*
X49440107Y-39860186D01*
X49440111Y-39860189D01*
X49571214Y-39947790D01*
X49571227Y-39947797D01*
X49716898Y-40008135D01*
X49716903Y-40008137D01*
X49871553Y-40038899D01*
X49871556Y-40038900D01*
X49871558Y-40038900D01*
X50029244Y-40038900D01*
X50029245Y-40038899D01*
X50183897Y-40008137D01*
X50329579Y-39947794D01*
X50460689Y-39860189D01*
X50572189Y-39748689D01*
X50659794Y-39617579D01*
X50720137Y-39471897D01*
X50750900Y-39317242D01*
X50750900Y-39307910D01*
X50770585Y-39240871D01*
X50806006Y-39204810D01*
X50850189Y-39175289D01*
X50961689Y-39063789D01*
X51049294Y-38932679D01*
X51109637Y-38786997D01*
X51140400Y-38632342D01*
X51140400Y-38474658D01*
X51140400Y-38474655D01*
X51140399Y-38474653D01*
X51129758Y-38421158D01*
X51109637Y-38320003D01*
X51109635Y-38319998D01*
X51049297Y-38174327D01*
X51049290Y-38174314D01*
X50961689Y-38043211D01*
X50961686Y-38043207D01*
X50850192Y-37931713D01*
X50850188Y-37931710D01*
X50719085Y-37844109D01*
X50719072Y-37844102D01*
X50573401Y-37783764D01*
X50573389Y-37783761D01*
X50418745Y-37753000D01*
X50418742Y-37753000D01*
X50261058Y-37753000D01*
X50261055Y-37753000D01*
X50106410Y-37783761D01*
X50106398Y-37783764D01*
X49960727Y-37844102D01*
X49960714Y-37844109D01*
X49829611Y-37931710D01*
X49829607Y-37931713D01*
X49718113Y-38043207D01*
X49718110Y-38043211D01*
X49630509Y-38174314D01*
X49630502Y-38174327D01*
X49570164Y-38319998D01*
X49570161Y-38320010D01*
X49539400Y-38474653D01*
X49539400Y-38483988D01*
X49519715Y-38551027D01*
X49484291Y-38587090D01*
X49440111Y-38616610D01*
X49440107Y-38616613D01*
X49328613Y-38728107D01*
X49328610Y-38728111D01*
X49241009Y-38859214D01*
X49241002Y-38859227D01*
X49180664Y-39004898D01*
X49180661Y-39004910D01*
X49149900Y-39159553D01*
X47409800Y-39159553D01*
X47409800Y-39079765D01*
X47429485Y-39012726D01*
X47430698Y-39010874D01*
X47518690Y-38879185D01*
X47518690Y-38879184D01*
X47518694Y-38879179D01*
X47579037Y-38733497D01*
X47609800Y-38578842D01*
X47609800Y-38421158D01*
X47609800Y-38421155D01*
X47609799Y-38421153D01*
X47583908Y-38290992D01*
X47579037Y-38266503D01*
X47564288Y-38230896D01*
X47518697Y-38120827D01*
X47518690Y-38120814D01*
X47431089Y-37989711D01*
X47431086Y-37989707D01*
X47319592Y-37878213D01*
X47319588Y-37878210D01*
X47188485Y-37790609D01*
X47188472Y-37790602D01*
X47042801Y-37730264D01*
X47042789Y-37730261D01*
X46888145Y-37699500D01*
X46888142Y-37699500D01*
X46730458Y-37699500D01*
X46730455Y-37699500D01*
X46575291Y-37730364D01*
X46505700Y-37724137D01*
X46450522Y-37681274D01*
X46427278Y-37615384D01*
X46427100Y-37608747D01*
X46427100Y-35136500D01*
X46446785Y-35069461D01*
X46499589Y-35023706D01*
X46551100Y-35012500D01*
X51229100Y-35012500D01*
X51296139Y-35032185D01*
X51341894Y-35084989D01*
X51353100Y-35136500D01*
X51353100Y-37859546D01*
X51383861Y-38014189D01*
X51383864Y-38014201D01*
X51444202Y-38159872D01*
X51444209Y-38159885D01*
X51531810Y-38290988D01*
X51531813Y-38290992D01*
X52384207Y-39143386D01*
X52384211Y-39143389D01*
X52515314Y-39230990D01*
X52515327Y-39230997D01*
X52660998Y-39291335D01*
X52661003Y-39291337D01*
X52793141Y-39317621D01*
X52815653Y-39322099D01*
X52815656Y-39322100D01*
X52815658Y-39322100D01*
X52973345Y-39322100D01*
X53077388Y-39301403D01*
X53127997Y-39291337D01*
X53273679Y-39230994D01*
X53404789Y-39143389D01*
X53516289Y-39031889D01*
X53603894Y-38900779D01*
X53664237Y-38755097D01*
X53674303Y-38704488D01*
X53695000Y-38600445D01*
X53695000Y-38442755D01*
X53694999Y-38442753D01*
X53678350Y-38359053D01*
X53664237Y-38288103D01*
X53654874Y-38265499D01*
X53603897Y-38142427D01*
X53603890Y-38142414D01*
X53516289Y-38011311D01*
X53516286Y-38011307D01*
X52990419Y-37485440D01*
X52956934Y-37424117D01*
X52954100Y-37397759D01*
X52954100Y-30661965D01*
X52973785Y-30594926D01*
X53026589Y-30549171D01*
X53053909Y-30540348D01*
X53078373Y-30535481D01*
X53170597Y-30517137D01*
X53316279Y-30456794D01*
X53447389Y-30369189D01*
X53558889Y-30257689D01*
X53646494Y-30126579D01*
X53647214Y-30124842D01*
X53674976Y-30057816D01*
X53706837Y-29980897D01*
X53709571Y-29967153D01*
X55786800Y-29967153D01*
X55786800Y-30124846D01*
X55817561Y-30279489D01*
X55817564Y-30279501D01*
X55877902Y-30425172D01*
X55877909Y-30425185D01*
X55965510Y-30556288D01*
X55965513Y-30556292D01*
X56077007Y-30667786D01*
X56077011Y-30667789D01*
X56208114Y-30755390D01*
X56208127Y-30755397D01*
X56353798Y-30815735D01*
X56353803Y-30815737D01*
X56508453Y-30846499D01*
X56508456Y-30846500D01*
X56508458Y-30846500D01*
X56666144Y-30846500D01*
X56666145Y-30846499D01*
X56820797Y-30815737D01*
X56966479Y-30755394D01*
X57097589Y-30667789D01*
X57209089Y-30556289D01*
X57296694Y-30425179D01*
X57357037Y-30279497D01*
X57387800Y-30124842D01*
X57387800Y-29967158D01*
X57387800Y-29967155D01*
X57387799Y-29967153D01*
X57378955Y-29922692D01*
X57357037Y-29812503D01*
X57340721Y-29773113D01*
X57296697Y-29666827D01*
X57296690Y-29666814D01*
X57209089Y-29535711D01*
X57209086Y-29535707D01*
X57097592Y-29424213D01*
X57097588Y-29424210D01*
X56966485Y-29336609D01*
X56966472Y-29336602D01*
X56820801Y-29276264D01*
X56820789Y-29276261D01*
X56666145Y-29245500D01*
X56666142Y-29245500D01*
X56508458Y-29245500D01*
X56508455Y-29245500D01*
X56353810Y-29276261D01*
X56353798Y-29276264D01*
X56208127Y-29336602D01*
X56208114Y-29336609D01*
X56077011Y-29424210D01*
X56077007Y-29424213D01*
X55965513Y-29535707D01*
X55965510Y-29535711D01*
X55877909Y-29666814D01*
X55877902Y-29666827D01*
X55817564Y-29812498D01*
X55817561Y-29812510D01*
X55786800Y-29967153D01*
X53709571Y-29967153D01*
X53718415Y-29922692D01*
X53737600Y-29826244D01*
X53737600Y-29668555D01*
X53737599Y-29668553D01*
X53733091Y-29645889D01*
X53706837Y-29513903D01*
X53697452Y-29491246D01*
X53646497Y-29368227D01*
X53646490Y-29368214D01*
X53558889Y-29237111D01*
X53558886Y-29237107D01*
X53447392Y-29125613D01*
X53447388Y-29125610D01*
X53316285Y-29038009D01*
X53316272Y-29038002D01*
X53170601Y-28977664D01*
X53170589Y-28977661D01*
X53015945Y-28946900D01*
X53015942Y-28946900D01*
X52858258Y-28946900D01*
X52858251Y-28946900D01*
X52842535Y-28950026D01*
X52772943Y-28943796D01*
X52730668Y-28916089D01*
X52663892Y-28849313D01*
X52663888Y-28849310D01*
X52532785Y-28761709D01*
X52532772Y-28761702D01*
X52387101Y-28701364D01*
X52387089Y-28701361D01*
X52232445Y-28670600D01*
X52232442Y-28670600D01*
X52074758Y-28670600D01*
X52074755Y-28670600D01*
X51920110Y-28701361D01*
X51920098Y-28701364D01*
X51774427Y-28761702D01*
X51774414Y-28761709D01*
X51643311Y-28849310D01*
X51643307Y-28849313D01*
X51531813Y-28960807D01*
X51531810Y-28960811D01*
X51444209Y-29091914D01*
X51444202Y-29091927D01*
X51383864Y-29237598D01*
X51383861Y-29237610D01*
X51353100Y-29392253D01*
X51353100Y-29577466D01*
X51333415Y-29644505D01*
X51280611Y-29690260D01*
X51211453Y-29700204D01*
X51170653Y-29686828D01*
X51168175Y-29685504D01*
X51022501Y-29625164D01*
X51022489Y-29625161D01*
X50867845Y-29594400D01*
X50867842Y-29594400D01*
X50710158Y-29594400D01*
X50710155Y-29594400D01*
X50555510Y-29625161D01*
X50555498Y-29625164D01*
X50409827Y-29685502D01*
X50409814Y-29685509D01*
X50278711Y-29773110D01*
X50278707Y-29773113D01*
X50167213Y-29884607D01*
X50167210Y-29884611D01*
X50079609Y-30015714D01*
X50079602Y-30015727D01*
X50019264Y-30161398D01*
X50019261Y-30161410D01*
X49988500Y-30316053D01*
X49988500Y-30473746D01*
X50019261Y-30628389D01*
X50019264Y-30628401D01*
X50079602Y-30774072D01*
X50079609Y-30774085D01*
X50167210Y-30905188D01*
X50167213Y-30905192D01*
X50278707Y-31016686D01*
X50278711Y-31016689D01*
X50409814Y-31104290D01*
X50409827Y-31104297D01*
X50555498Y-31164635D01*
X50555503Y-31164637D01*
X50654119Y-31184253D01*
X50710153Y-31195399D01*
X50710156Y-31195400D01*
X50710158Y-31195400D01*
X50867844Y-31195400D01*
X50867845Y-31195399D01*
X51022497Y-31164637D01*
X51168179Y-31104294D01*
X51168188Y-31104287D01*
X51170642Y-31102977D01*
X51172085Y-31102676D01*
X51173808Y-31101963D01*
X51173943Y-31102289D01*
X51239044Y-31088732D01*
X51304289Y-31113730D01*
X51345662Y-31170033D01*
X51353100Y-31212333D01*
X51353100Y-33287500D01*
X51333415Y-33354539D01*
X51280611Y-33400294D01*
X51229100Y-33411500D01*
X46556182Y-33411500D01*
X46537004Y-33405868D01*
X46517026Y-33405156D01*
X46504162Y-33396225D01*
X46489143Y-33391815D01*
X46476054Y-33376710D01*
X46459633Y-33365309D01*
X46445419Y-33341354D01*
X46443388Y-33339011D01*
X46441622Y-33334956D01*
X46436540Y-33322688D01*
X46427100Y-33275232D01*
X46427100Y-31643653D01*
X46922200Y-31643653D01*
X46922200Y-31801346D01*
X46952961Y-31955989D01*
X46952964Y-31956001D01*
X47013302Y-32101672D01*
X47013309Y-32101685D01*
X47100910Y-32232788D01*
X47100913Y-32232792D01*
X47212407Y-32344286D01*
X47212411Y-32344289D01*
X47343514Y-32431890D01*
X47343527Y-32431897D01*
X47457690Y-32479184D01*
X47489203Y-32492237D01*
X47643853Y-32522999D01*
X47643856Y-32523000D01*
X47643858Y-32523000D01*
X47801544Y-32523000D01*
X47801545Y-32522999D01*
X47956197Y-32492237D01*
X48101879Y-32431894D01*
X48232989Y-32344289D01*
X48344489Y-32232789D01*
X48432094Y-32101679D01*
X48492437Y-31955997D01*
X48523200Y-31801342D01*
X48523200Y-31643658D01*
X48523200Y-31643655D01*
X48523199Y-31643653D01*
X48511791Y-31586300D01*
X48492437Y-31489003D01*
X48488667Y-31479901D01*
X48432097Y-31343327D01*
X48432090Y-31343314D01*
X48344489Y-31212211D01*
X48344486Y-31212207D01*
X48232992Y-31100713D01*
X48232988Y-31100710D01*
X48101885Y-31013109D01*
X48101872Y-31013102D01*
X47956201Y-30952764D01*
X47956189Y-30952761D01*
X47801545Y-30922000D01*
X47801542Y-30922000D01*
X47643858Y-30922000D01*
X47643855Y-30922000D01*
X47489210Y-30952761D01*
X47489198Y-30952764D01*
X47343527Y-31013102D01*
X47343514Y-31013109D01*
X47212411Y-31100710D01*
X47212407Y-31100713D01*
X47100913Y-31212207D01*
X47100910Y-31212211D01*
X47013309Y-31343314D01*
X47013302Y-31343327D01*
X46952964Y-31488998D01*
X46952961Y-31489010D01*
X46922200Y-31643653D01*
X46427100Y-31643653D01*
X46427100Y-23219459D01*
X46427101Y-23219446D01*
X46427101Y-23051345D01*
X46427101Y-23051343D01*
X46386177Y-22898615D01*
X46343675Y-22825000D01*
X46307120Y-22761684D01*
X46195316Y-22649880D01*
X46190985Y-22645549D01*
X46190974Y-22645539D01*
X44895588Y-21350153D01*
X45921200Y-21350153D01*
X45921200Y-21507846D01*
X45951961Y-21662489D01*
X45951964Y-21662501D01*
X46012302Y-21808172D01*
X46012309Y-21808185D01*
X46099910Y-21939288D01*
X46099913Y-21939292D01*
X46211407Y-22050786D01*
X46211411Y-22050789D01*
X46342514Y-22138390D01*
X46342527Y-22138397D01*
X46467110Y-22190000D01*
X46488203Y-22198737D01*
X46642853Y-22229499D01*
X46642856Y-22229500D01*
X46642858Y-22229500D01*
X46800544Y-22229500D01*
X46800545Y-22229499D01*
X46955197Y-22198737D01*
X47100879Y-22138394D01*
X47231989Y-22050789D01*
X47343489Y-21939289D01*
X47431094Y-21808179D01*
X47438209Y-21791003D01*
X47491435Y-21662501D01*
X47491437Y-21662497D01*
X47522200Y-21507842D01*
X47522200Y-21350158D01*
X47522200Y-21350155D01*
X47522199Y-21350153D01*
X47491438Y-21195510D01*
X47491437Y-21195503D01*
X47469052Y-21141461D01*
X47431097Y-21049827D01*
X47431090Y-21049814D01*
X47343489Y-20918711D01*
X47343486Y-20918707D01*
X47231992Y-20807213D01*
X47231988Y-20807210D01*
X47100885Y-20719609D01*
X47100872Y-20719602D01*
X46955201Y-20659264D01*
X46955189Y-20659261D01*
X46859279Y-20640183D01*
X46859278Y-20640183D01*
X46800544Y-20628500D01*
X46800542Y-20628500D01*
X46642858Y-20628500D01*
X46642855Y-20628500D01*
X46488210Y-20659261D01*
X46488198Y-20659264D01*
X46342527Y-20719602D01*
X46342514Y-20719609D01*
X46211411Y-20807210D01*
X46211407Y-20807213D01*
X46099913Y-20918707D01*
X46099910Y-20918711D01*
X46012309Y-21049814D01*
X46012302Y-21049827D01*
X45951964Y-21195498D01*
X45951961Y-21195510D01*
X45921200Y-21350153D01*
X44895588Y-21350153D01*
X44070088Y-20524653D01*
X50184800Y-20524653D01*
X50184800Y-20682346D01*
X50215561Y-20836989D01*
X50215564Y-20837001D01*
X50275902Y-20982672D01*
X50275909Y-20982685D01*
X50363510Y-21113788D01*
X50363513Y-21113792D01*
X50475007Y-21225286D01*
X50475011Y-21225289D01*
X50606114Y-21312890D01*
X50606127Y-21312897D01*
X50741306Y-21368889D01*
X50751803Y-21373237D01*
X50906453Y-21403999D01*
X50906456Y-21404000D01*
X50906458Y-21404000D01*
X51064144Y-21404000D01*
X51064145Y-21403999D01*
X51218797Y-21373237D01*
X51347454Y-21319946D01*
X51364472Y-21312897D01*
X51364472Y-21312896D01*
X51364479Y-21312894D01*
X51495589Y-21225289D01*
X51607089Y-21113789D01*
X51694694Y-20982679D01*
X51755037Y-20836997D01*
X51785800Y-20682342D01*
X51785800Y-20524658D01*
X51785800Y-20524655D01*
X51785799Y-20524653D01*
X51770756Y-20449026D01*
X51755037Y-20370003D01*
X51703011Y-20244399D01*
X51694697Y-20224327D01*
X51694690Y-20224314D01*
X51607089Y-20093211D01*
X51607086Y-20093207D01*
X51495592Y-19981713D01*
X51495588Y-19981710D01*
X51364485Y-19894109D01*
X51364472Y-19894102D01*
X51218801Y-19833764D01*
X51218789Y-19833761D01*
X51064145Y-19803000D01*
X51064142Y-19803000D01*
X50906458Y-19803000D01*
X50906455Y-19803000D01*
X50751810Y-19833761D01*
X50751798Y-19833764D01*
X50606127Y-19894102D01*
X50606114Y-19894109D01*
X50475011Y-19981710D01*
X50475007Y-19981713D01*
X50363513Y-20093207D01*
X50363510Y-20093211D01*
X50275909Y-20224314D01*
X50275902Y-20224327D01*
X50215564Y-20369998D01*
X50215561Y-20370010D01*
X50184800Y-20524653D01*
X44070088Y-20524653D01*
X42910488Y-19365053D01*
X46556800Y-19365053D01*
X46556800Y-19522746D01*
X46587561Y-19677389D01*
X46587564Y-19677401D01*
X46647902Y-19823072D01*
X46647909Y-19823085D01*
X46735510Y-19954188D01*
X46735513Y-19954192D01*
X46847007Y-20065686D01*
X46847011Y-20065689D01*
X46978114Y-20153290D01*
X46978127Y-20153297D01*
X47116210Y-20210492D01*
X47123803Y-20213637D01*
X47278453Y-20244399D01*
X47278456Y-20244400D01*
X47278458Y-20244400D01*
X47436144Y-20244400D01*
X47436145Y-20244399D01*
X47590797Y-20213637D01*
X47736479Y-20153294D01*
X47867589Y-20065689D01*
X47979089Y-19954189D01*
X48066694Y-19823079D01*
X48127037Y-19677397D01*
X48157800Y-19522742D01*
X48157800Y-19365058D01*
X48157800Y-19365055D01*
X48157799Y-19365053D01*
X48144521Y-19298299D01*
X48127037Y-19210403D01*
X48125706Y-19207190D01*
X48066697Y-19064727D01*
X48066690Y-19064714D01*
X47979089Y-18933611D01*
X47979086Y-18933607D01*
X47867592Y-18822113D01*
X47867588Y-18822110D01*
X47736485Y-18734509D01*
X47736472Y-18734502D01*
X47590801Y-18674164D01*
X47590789Y-18674161D01*
X47436145Y-18643400D01*
X47436142Y-18643400D01*
X47278458Y-18643400D01*
X47278455Y-18643400D01*
X47123810Y-18674161D01*
X47123798Y-18674164D01*
X46978127Y-18734502D01*
X46978114Y-18734509D01*
X46847011Y-18822110D01*
X46847007Y-18822113D01*
X46735513Y-18933607D01*
X46735510Y-18933611D01*
X46647909Y-19064714D01*
X46647902Y-19064727D01*
X46587564Y-19210398D01*
X46587561Y-19210410D01*
X46556800Y-19365053D01*
X42910488Y-19365053D01*
X41955988Y-18410553D01*
X48947500Y-18410553D01*
X48947500Y-18568246D01*
X48978261Y-18722889D01*
X48978264Y-18722901D01*
X49038602Y-18868572D01*
X49038609Y-18868585D01*
X49126210Y-18999688D01*
X49126213Y-18999692D01*
X49237707Y-19111186D01*
X49237711Y-19111189D01*
X49368814Y-19198790D01*
X49368827Y-19198797D01*
X49514498Y-19259135D01*
X49514503Y-19259137D01*
X49669153Y-19289899D01*
X49669156Y-19289900D01*
X49669158Y-19289900D01*
X49826844Y-19289900D01*
X49826845Y-19289899D01*
X49981497Y-19259137D01*
X50035518Y-19236760D01*
X50113576Y-19204429D01*
X50183045Y-19196960D01*
X50208848Y-19205933D01*
X50209292Y-19204863D01*
X50340323Y-19259137D01*
X50360603Y-19267537D01*
X50515253Y-19298299D01*
X50515256Y-19298300D01*
X50515258Y-19298300D01*
X50672944Y-19298300D01*
X50672945Y-19298299D01*
X50827597Y-19267537D01*
X50940266Y-19220867D01*
X50973272Y-19207197D01*
X50973272Y-19207196D01*
X50973279Y-19207194D01*
X51104389Y-19119589D01*
X51215889Y-19008089D01*
X51303494Y-18876979D01*
X51323732Y-18828121D01*
X51355966Y-18750299D01*
X51363837Y-18731297D01*
X51394600Y-18576642D01*
X51394600Y-18418958D01*
X51394600Y-18418955D01*
X51394599Y-18418953D01*
X51386912Y-18380309D01*
X51363837Y-18264303D01*
X51355568Y-18244339D01*
X51303497Y-18118627D01*
X51303490Y-18118614D01*
X51215889Y-17987511D01*
X51215886Y-17987507D01*
X51104392Y-17876013D01*
X51104388Y-17876010D01*
X50973285Y-17788409D01*
X50973272Y-17788402D01*
X50827601Y-17728064D01*
X50827589Y-17728061D01*
X50672945Y-17697300D01*
X50672942Y-17697300D01*
X50515258Y-17697300D01*
X50515255Y-17697300D01*
X50360610Y-17728061D01*
X50360598Y-17728064D01*
X50228523Y-17782771D01*
X50159054Y-17790240D01*
X50133250Y-17781266D01*
X50132807Y-17782337D01*
X49981501Y-17719664D01*
X49981489Y-17719661D01*
X49826845Y-17688900D01*
X49826842Y-17688900D01*
X49669158Y-17688900D01*
X49669155Y-17688900D01*
X49514510Y-17719661D01*
X49514498Y-17719664D01*
X49368827Y-17780002D01*
X49368814Y-17780009D01*
X49237711Y-17867610D01*
X49237707Y-17867613D01*
X49126213Y-17979107D01*
X49126210Y-17979111D01*
X49038609Y-18110214D01*
X49038602Y-18110227D01*
X48978264Y-18255898D01*
X48978261Y-18255910D01*
X48947500Y-18410553D01*
X41955988Y-18410553D01*
X41520119Y-17974684D01*
X41486634Y-17913361D01*
X41483800Y-17887003D01*
X41483800Y-14609041D01*
X43099500Y-14609041D01*
X43099500Y-14890958D01*
X43136295Y-15170439D01*
X43209259Y-15442743D01*
X43317135Y-15703179D01*
X43317140Y-15703190D01*
X43458083Y-15947309D01*
X43458088Y-15947317D01*
X43577326Y-16102710D01*
X43629704Y-16170970D01*
X43829029Y-16370295D01*
X43829033Y-16370298D01*
X43829035Y-16370300D01*
X44052683Y-16541912D01*
X44052690Y-16541916D01*
X44296809Y-16682859D01*
X44296814Y-16682861D01*
X44296817Y-16682863D01*
X44557261Y-16790742D01*
X44829558Y-16863704D01*
X45109049Y-16900500D01*
X45109056Y-16900500D01*
X45390944Y-16900500D01*
X45390951Y-16900500D01*
X45670442Y-16863704D01*
X45942739Y-16790742D01*
X46203183Y-16682863D01*
X46447317Y-16541912D01*
X46670965Y-16370300D01*
X46870300Y-16170965D01*
X47041912Y-15947317D01*
X47182863Y-15703183D01*
X47290742Y-15442739D01*
X47363704Y-15170442D01*
X47400500Y-14890951D01*
X47400500Y-14609049D01*
X47363704Y-14329558D01*
X47290742Y-14057261D01*
X47182863Y-13796817D01*
X47182861Y-13796814D01*
X47182859Y-13796809D01*
X47041916Y-13552690D01*
X47041912Y-13552683D01*
X46870300Y-13329035D01*
X46870298Y-13329033D01*
X46870295Y-13329029D01*
X46670970Y-13129704D01*
X46663333Y-13123844D01*
X46447317Y-12958088D01*
X46447311Y-12958084D01*
X46447309Y-12958083D01*
X46352860Y-12903553D01*
X46203190Y-12817140D01*
X46203179Y-12817135D01*
X46167251Y-12802253D01*
X49221100Y-12802253D01*
X49221100Y-12959946D01*
X49251861Y-13114589D01*
X49251864Y-13114601D01*
X49312202Y-13260272D01*
X49312209Y-13260285D01*
X49399810Y-13391388D01*
X49399813Y-13391392D01*
X49511307Y-13502886D01*
X49511311Y-13502889D01*
X49642414Y-13590490D01*
X49642427Y-13590497D01*
X49725159Y-13624765D01*
X49788103Y-13650837D01*
X49942753Y-13681599D01*
X49942756Y-13681600D01*
X49942758Y-13681600D01*
X50100444Y-13681600D01*
X50100445Y-13681599D01*
X50255097Y-13650837D01*
X50400779Y-13590494D01*
X50531889Y-13502889D01*
X50643389Y-13391389D01*
X50730994Y-13260279D01*
X50791337Y-13114597D01*
X50822100Y-12959942D01*
X50822100Y-12802258D01*
X50822100Y-12802255D01*
X50822099Y-12802253D01*
X50813624Y-12759646D01*
X50791337Y-12647603D01*
X50773570Y-12604710D01*
X50730997Y-12501927D01*
X50730990Y-12501914D01*
X50643389Y-12370811D01*
X50643386Y-12370807D01*
X50531892Y-12259313D01*
X50531888Y-12259310D01*
X50400785Y-12171709D01*
X50400772Y-12171702D01*
X50255101Y-12111364D01*
X50255089Y-12111361D01*
X50100445Y-12080600D01*
X50100442Y-12080600D01*
X49942758Y-12080600D01*
X49942755Y-12080600D01*
X49788110Y-12111361D01*
X49788098Y-12111364D01*
X49642427Y-12171702D01*
X49642414Y-12171709D01*
X49511311Y-12259310D01*
X49511307Y-12259313D01*
X49399813Y-12370807D01*
X49399810Y-12370811D01*
X49312209Y-12501914D01*
X49312202Y-12501927D01*
X49251864Y-12647598D01*
X49251861Y-12647610D01*
X49221100Y-12802253D01*
X46167251Y-12802253D01*
X45942743Y-12709259D01*
X45670439Y-12636295D01*
X45390958Y-12599500D01*
X45390951Y-12599500D01*
X45109049Y-12599500D01*
X45109041Y-12599500D01*
X44829560Y-12636295D01*
X44557256Y-12709259D01*
X44296820Y-12817135D01*
X44296809Y-12817140D01*
X44052690Y-12958083D01*
X44052684Y-12958087D01*
X44052683Y-12958088D01*
X44050262Y-12959946D01*
X43829029Y-13129704D01*
X43629704Y-13329029D01*
X43567025Y-13410714D01*
X43496297Y-13502889D01*
X43458089Y-13552682D01*
X43458083Y-13552690D01*
X43317140Y-13796809D01*
X43317135Y-13796820D01*
X43209259Y-14057256D01*
X43136295Y-14329560D01*
X43099500Y-14609041D01*
X41483800Y-14609041D01*
X41483800Y-7643655D01*
X41503485Y-7576616D01*
X41504662Y-7574817D01*
X41551394Y-7504879D01*
X41611737Y-7359197D01*
X41642500Y-7204542D01*
X41642500Y-7046858D01*
X41642500Y-7046855D01*
X41642499Y-7046853D01*
X41616811Y-6917712D01*
X41611737Y-6892203D01*
X41611735Y-6892198D01*
X41551397Y-6746527D01*
X41551390Y-6746514D01*
X41463789Y-6615411D01*
X41463786Y-6615407D01*
X41352292Y-6503913D01*
X41352288Y-6503910D01*
X41221185Y-6416309D01*
X41221172Y-6416302D01*
X41075501Y-6355964D01*
X41075489Y-6355961D01*
X40920845Y-6325200D01*
X40920842Y-6325200D01*
X40763158Y-6325200D01*
X40763155Y-6325200D01*
X40608510Y-6355961D01*
X40608498Y-6355964D01*
X40462827Y-6416302D01*
X40462814Y-6416309D01*
X40331711Y-6503910D01*
X40331707Y-6503913D01*
X40220213Y-6615407D01*
X40220210Y-6615411D01*
X40132609Y-6746514D01*
X40132602Y-6746527D01*
X40072264Y-6892198D01*
X40072261Y-6892210D01*
X40041500Y-7046853D01*
X40041500Y-7204546D01*
X40072261Y-7359189D01*
X40072264Y-7359201D01*
X40132602Y-7504872D01*
X40132609Y-7504885D01*
X40220209Y-7635987D01*
X40220210Y-7635988D01*
X40220211Y-7635989D01*
X40246481Y-7662259D01*
X40279966Y-7723580D01*
X40282800Y-7749940D01*
X40282800Y-10945553D01*
X40263115Y-11012592D01*
X40210311Y-11058347D01*
X40141153Y-11068291D01*
X40134609Y-11067170D01*
X40058846Y-11052100D01*
X40058842Y-11052100D01*
X39901158Y-11052100D01*
X39901155Y-11052100D01*
X39746510Y-11082861D01*
X39746498Y-11082864D01*
X39600827Y-11143202D01*
X39600814Y-11143209D01*
X39469711Y-11230810D01*
X39469707Y-11230813D01*
X39358213Y-11342307D01*
X39358210Y-11342311D01*
X39270609Y-11473414D01*
X39270602Y-11473427D01*
X39210264Y-11619098D01*
X39210261Y-11619108D01*
X39179362Y-11774447D01*
X39170596Y-11791204D01*
X39166577Y-11809681D01*
X39147832Y-11834722D01*
X39146977Y-11836358D01*
X39145427Y-11837936D01*
X39102133Y-11881229D01*
X39047685Y-11935678D01*
X39047684Y-11935679D01*
X39040618Y-11942746D01*
X39040615Y-11942747D01*
X39040614Y-11942748D01*
X39040615Y-11942749D01*
X38935880Y-12047484D01*
X38899000Y-12111363D01*
X38856823Y-12184415D01*
X38815899Y-12337143D01*
X38815899Y-12337145D01*
X38815899Y-12505246D01*
X38815900Y-12505259D01*
X38815900Y-18398030D01*
X38815899Y-18398048D01*
X38815899Y-18563754D01*
X38815898Y-18563754D01*
X38821728Y-18585511D01*
X38856823Y-18716485D01*
X38856824Y-18716487D01*
X38856823Y-18716487D01*
X38865375Y-18731298D01*
X38865376Y-18731299D01*
X38935877Y-18853412D01*
X38935881Y-18853417D01*
X39054749Y-18972285D01*
X39054755Y-18972290D01*
X39908881Y-19826416D01*
X39942366Y-19887739D01*
X39945200Y-19914097D01*
X39945200Y-20327409D01*
X39925515Y-20394448D01*
X39872711Y-20440203D01*
X39845392Y-20449026D01*
X39733108Y-20471361D01*
X39733098Y-20471364D01*
X39587427Y-20531702D01*
X39587414Y-20531709D01*
X39456311Y-20619310D01*
X39456307Y-20619313D01*
X39344813Y-20730807D01*
X39344810Y-20730811D01*
X39257209Y-20861914D01*
X39257202Y-20861927D01*
X39196864Y-21007598D01*
X39196861Y-21007610D01*
X39166100Y-21162253D01*
X39166100Y-21319946D01*
X39196861Y-21474589D01*
X39196864Y-21474601D01*
X39257202Y-21620272D01*
X39257209Y-21620285D01*
X39344810Y-21751388D01*
X39344813Y-21751392D01*
X39456307Y-21862886D01*
X39456311Y-21862889D01*
X39587414Y-21950490D01*
X39587427Y-21950497D01*
X39717343Y-22004309D01*
X39733103Y-22010837D01*
X39790358Y-22022225D01*
X39845391Y-22033173D01*
X39907302Y-22065558D01*
X39941876Y-22126273D01*
X39945200Y-22154790D01*
X39945200Y-23297483D01*
X39925515Y-23364522D01*
X39872711Y-23410277D01*
X39803553Y-23420221D01*
X39773748Y-23412044D01*
X39652601Y-23361864D01*
X39652589Y-23361861D01*
X39497945Y-23331100D01*
X39497942Y-23331100D01*
X39340258Y-23331100D01*
X39340255Y-23331100D01*
X39185610Y-23361861D01*
X39185598Y-23361864D01*
X39039927Y-23422202D01*
X39039914Y-23422209D01*
X38908811Y-23509810D01*
X38908807Y-23509813D01*
X38797313Y-23621307D01*
X38797310Y-23621311D01*
X38709709Y-23752414D01*
X38709702Y-23752427D01*
X38649364Y-23898098D01*
X38649361Y-23898110D01*
X38618600Y-24052753D01*
X38618600Y-24210446D01*
X38649361Y-24365089D01*
X38649364Y-24365101D01*
X38709702Y-24510772D01*
X38709709Y-24510785D01*
X38797310Y-24641888D01*
X38797313Y-24641892D01*
X38908807Y-24753386D01*
X38908811Y-24753389D01*
X39039914Y-24840990D01*
X39039927Y-24840997D01*
X39185417Y-24901260D01*
X39185603Y-24901337D01*
X39340253Y-24932099D01*
X39340256Y-24932100D01*
X39340258Y-24932100D01*
X39497944Y-24932100D01*
X39497945Y-24932099D01*
X39652597Y-24901337D01*
X39773748Y-24851154D01*
X39843217Y-24843686D01*
X39905696Y-24874961D01*
X39941348Y-24935050D01*
X39945200Y-24965716D01*
X39945200Y-32175700D01*
X39925515Y-32242739D01*
X39872711Y-32288494D01*
X39821200Y-32299700D01*
X39741755Y-32299700D01*
X39587110Y-32330461D01*
X39587098Y-32330464D01*
X39441427Y-32390802D01*
X39441414Y-32390809D01*
X39340399Y-32458306D01*
X39273721Y-32479184D01*
X39206341Y-32460699D01*
X39168405Y-32424094D01*
X39156187Y-32405808D01*
X39044692Y-32294313D01*
X39044688Y-32294310D01*
X38913585Y-32206709D01*
X38913572Y-32206702D01*
X38767901Y-32146364D01*
X38767891Y-32146361D01*
X38612549Y-32115461D01*
X38550638Y-32083076D01*
X38549060Y-32081525D01*
X38177019Y-31709484D01*
X38143534Y-31648161D01*
X38140700Y-31621803D01*
X38140700Y-13624765D01*
X38160385Y-13557726D01*
X38161598Y-13555874D01*
X38163726Y-13552690D01*
X38249594Y-13424179D01*
X38255169Y-13410721D01*
X38279920Y-13350965D01*
X38309937Y-13278497D01*
X38340700Y-13123842D01*
X38340700Y-12966158D01*
X38340700Y-12966155D01*
X38340699Y-12966153D01*
X38323186Y-12878109D01*
X38309937Y-12811503D01*
X38296023Y-12777911D01*
X38249597Y-12665827D01*
X38249590Y-12665814D01*
X38161989Y-12534711D01*
X38161986Y-12534707D01*
X38050492Y-12423213D01*
X38050488Y-12423210D01*
X37919385Y-12335609D01*
X37919372Y-12335602D01*
X37773701Y-12275264D01*
X37773689Y-12275261D01*
X37619045Y-12244500D01*
X37619042Y-12244500D01*
X37461358Y-12244500D01*
X37461355Y-12244500D01*
X37306710Y-12275261D01*
X37306698Y-12275264D01*
X37161027Y-12335602D01*
X37161014Y-12335609D01*
X37029911Y-12423210D01*
X37029907Y-12423213D01*
X36918413Y-12534707D01*
X36918410Y-12534711D01*
X36830809Y-12665814D01*
X36830802Y-12665827D01*
X36770464Y-12811498D01*
X36770461Y-12811510D01*
X36739700Y-12966153D01*
X36739700Y-13123846D01*
X36770461Y-13278489D01*
X36770464Y-13278501D01*
X36830802Y-13424172D01*
X36830809Y-13424185D01*
X36918802Y-13555874D01*
X36939680Y-13622551D01*
X36939700Y-13624765D01*
X36939700Y-14893196D01*
X36920015Y-14960235D01*
X36867211Y-15005990D01*
X36798053Y-15015934D01*
X36791510Y-15014814D01*
X36700442Y-14996700D01*
X36577000Y-14996700D01*
X36509961Y-14977015D01*
X36464206Y-14924211D01*
X36453000Y-14872700D01*
X36453000Y-4814965D01*
X36472685Y-4747926D01*
X36473898Y-4746074D01*
X36561890Y-4614385D01*
X36561890Y-4614384D01*
X36561894Y-4614379D01*
X36622237Y-4468697D01*
X36653000Y-4314042D01*
X36653000Y-4156358D01*
X36653000Y-4156355D01*
X36652999Y-4156353D01*
X36622238Y-4001710D01*
X36622237Y-4001703D01*
X36622235Y-4001698D01*
X36561897Y-3856027D01*
X36561890Y-3856014D01*
X36474289Y-3724911D01*
X36474286Y-3724907D01*
X36362792Y-3613413D01*
X36362788Y-3613410D01*
X36231685Y-3525809D01*
X36231672Y-3525802D01*
X36086001Y-3465464D01*
X36085989Y-3465461D01*
X35931345Y-3434700D01*
X35931342Y-3434700D01*
X35773658Y-3434700D01*
X35773655Y-3434700D01*
X35619010Y-3465461D01*
X35618998Y-3465464D01*
X35473327Y-3525802D01*
X35473314Y-3525809D01*
X35342211Y-3613410D01*
X35342207Y-3613413D01*
X35230713Y-3724907D01*
X35230710Y-3724911D01*
X35143109Y-3856014D01*
X35143102Y-3856027D01*
X35082764Y-4001698D01*
X35082761Y-4001710D01*
X35052000Y-4156353D01*
X35052000Y-4314046D01*
X35082761Y-4468689D01*
X35082764Y-4468701D01*
X35143102Y-4614372D01*
X35143109Y-4614385D01*
X35231102Y-4746074D01*
X35251980Y-4812751D01*
X35252000Y-4814965D01*
X35252000Y-12475200D01*
X35232315Y-12542239D01*
X35179511Y-12587994D01*
X35128000Y-12599200D01*
X35004655Y-12599200D01*
X34850010Y-12629961D01*
X34849998Y-12629964D01*
X34704327Y-12690302D01*
X34704314Y-12690309D01*
X34573211Y-12777910D01*
X34573207Y-12777913D01*
X34461713Y-12889407D01*
X34461710Y-12889411D01*
X34374109Y-13020514D01*
X34374102Y-13020527D01*
X34313764Y-13166198D01*
X34313761Y-13166208D01*
X34282861Y-13321550D01*
X34250476Y-13383461D01*
X34248925Y-13385039D01*
X28566681Y-19067283D01*
X28505358Y-19100768D01*
X28435666Y-19095784D01*
X28379733Y-19053912D01*
X28355316Y-18988448D01*
X28355000Y-18979602D01*
X28355000Y-17055559D01*
X28355001Y-17055546D01*
X28355001Y-16887445D01*
X28355001Y-16887443D01*
X28314077Y-16734715D01*
X28261891Y-16644327D01*
X28235020Y-16597784D01*
X28123216Y-16485980D01*
X28123213Y-16485978D01*
X24460774Y-12823539D01*
X24427289Y-12762216D01*
X24426838Y-12760049D01*
X24400962Y-12629964D01*
X24395937Y-12604703D01*
X24393658Y-12599200D01*
X24335597Y-12459027D01*
X24335590Y-12459014D01*
X24247989Y-12327911D01*
X24247986Y-12327907D01*
X24136492Y-12216413D01*
X24136488Y-12216410D01*
X24005385Y-12128809D01*
X24005372Y-12128802D01*
X23859701Y-12068464D01*
X23859689Y-12068461D01*
X23774809Y-12051577D01*
X23712898Y-12019192D01*
X23678323Y-11958476D01*
X23675000Y-11929960D01*
X23675000Y-8901146D01*
X23675000Y-8901143D01*
X23666867Y-8870789D01*
X23634077Y-8748415D01*
X23588011Y-8668627D01*
X23555020Y-8611484D01*
X23443216Y-8499680D01*
X23443215Y-8499679D01*
X23438885Y-8495349D01*
X23438874Y-8495339D01*
X23289374Y-8345839D01*
X23255889Y-8284516D01*
X23255438Y-8282349D01*
X23224538Y-8127010D01*
X23224537Y-8127003D01*
X23224535Y-8126998D01*
X23164197Y-7981327D01*
X23164190Y-7981314D01*
X23076589Y-7850211D01*
X23076586Y-7850207D01*
X22965092Y-7738713D01*
X22965088Y-7738710D01*
X22833985Y-7651109D01*
X22833972Y-7651102D01*
X22688301Y-7590764D01*
X22688289Y-7590761D01*
X22533645Y-7560000D01*
X22533642Y-7560000D01*
X22375958Y-7560000D01*
X22375955Y-7560000D01*
X22221310Y-7590761D01*
X22221298Y-7590764D01*
X22075627Y-7651102D01*
X22075614Y-7651109D01*
X21944511Y-7738710D01*
X21944507Y-7738713D01*
X21833013Y-7850207D01*
X21833010Y-7850211D01*
X21745409Y-7981314D01*
X21745402Y-7981327D01*
X21685064Y-8126998D01*
X21685061Y-8127010D01*
X21654300Y-8281653D01*
X21654300Y-8439346D01*
X21685061Y-8593989D01*
X21685064Y-8594001D01*
X21745402Y-8739672D01*
X21745409Y-8739685D01*
X21833009Y-8870787D01*
X21833013Y-8870792D01*
X21944507Y-8982286D01*
X21944511Y-8982289D01*
X22075614Y-9069890D01*
X22075627Y-9069897D01*
X22221298Y-9130235D01*
X22221303Y-9130237D01*
X22290032Y-9143908D01*
X22374191Y-9160649D01*
X22436102Y-9193034D01*
X22470676Y-9253750D01*
X22474000Y-9282266D01*
X22474000Y-12867914D01*
X22454315Y-12934953D01*
X22401511Y-12980708D01*
X22374192Y-12989531D01*
X22220208Y-13020161D01*
X22220198Y-13020164D01*
X22074527Y-13080502D01*
X22074514Y-13080509D01*
X21943411Y-13168110D01*
X21943407Y-13168113D01*
X21831913Y-13279607D01*
X21831910Y-13279611D01*
X21744309Y-13410714D01*
X21744302Y-13410727D01*
X21683964Y-13556398D01*
X21683961Y-13556410D01*
X21653200Y-13711053D01*
X21653200Y-13868746D01*
X21683961Y-14023389D01*
X21683964Y-14023401D01*
X21744302Y-14169072D01*
X21744309Y-14169085D01*
X21831910Y-14300188D01*
X21831913Y-14300192D01*
X21943407Y-14411686D01*
X21943411Y-14411689D01*
X22074514Y-14499290D01*
X22074527Y-14499297D01*
X22220198Y-14559635D01*
X22220203Y-14559637D01*
X22276792Y-14570893D01*
X22374191Y-14590268D01*
X22436102Y-14622653D01*
X22470677Y-14683369D01*
X22474000Y-14711885D01*
X22474000Y-18236730D01*
X22473999Y-18236748D01*
X22473999Y-18402454D01*
X22473998Y-18402454D01*
X22514923Y-18555185D01*
X22532432Y-18585511D01*
X22539527Y-18597800D01*
X22556000Y-18665701D01*
X22535242Y-18728690D01*
X22468812Y-18828109D01*
X22468802Y-18828127D01*
X22408464Y-18973798D01*
X22408461Y-18973810D01*
X22377700Y-19128453D01*
X22377700Y-19286146D01*
X22408461Y-19440789D01*
X22408464Y-19440801D01*
X22468802Y-19586472D01*
X22468809Y-19586485D01*
X22556410Y-19717588D01*
X22556413Y-19717592D01*
X22667907Y-19829086D01*
X22667911Y-19829089D01*
X22799014Y-19916690D01*
X22799027Y-19916697D01*
X22944698Y-19977035D01*
X22944703Y-19977037D01*
X23099353Y-20007799D01*
X23099356Y-20007800D01*
X23099358Y-20007800D01*
X23257044Y-20007800D01*
X23257045Y-20007799D01*
X23411697Y-19977037D01*
X23467320Y-19953997D01*
X23563008Y-19914363D01*
X23563841Y-19916376D01*
X23622620Y-19904123D01*
X23687870Y-19929108D01*
X23729254Y-19985403D01*
X23736700Y-20027726D01*
X23736700Y-34332734D01*
X23717015Y-34399773D01*
X23715802Y-34401625D01*
X23627809Y-34533314D01*
X23627802Y-34533327D01*
X23567464Y-34678998D01*
X23567461Y-34679010D01*
X23536700Y-34833653D01*
X23536700Y-34991346D01*
X23567461Y-35145989D01*
X23567464Y-35146001D01*
X23627802Y-35291672D01*
X23627809Y-35291685D01*
X23715410Y-35422788D01*
X23715413Y-35422792D01*
X23826907Y-35534286D01*
X23826911Y-35534289D01*
X23958014Y-35621890D01*
X23958027Y-35621897D01*
X24081021Y-35672842D01*
X24103703Y-35682237D01*
X24258353Y-35712999D01*
X24258356Y-35713000D01*
X24258358Y-35713000D01*
X24416044Y-35713000D01*
X24416045Y-35712999D01*
X24570697Y-35682237D01*
X24716379Y-35621894D01*
X24716384Y-35621890D01*
X24721754Y-35619021D01*
X24722637Y-35620674D01*
X24780964Y-35602399D01*
X24848347Y-35620871D01*
X24895047Y-35672842D01*
X24907200Y-35726379D01*
X24907200Y-50628403D01*
X24887515Y-50695442D01*
X24870881Y-50716084D01*
X18456384Y-57130581D01*
X18429456Y-57145284D01*
X18403638Y-57161877D01*
X18397437Y-57162768D01*
X18395061Y-57164066D01*
X18368703Y-57166900D01*
X18204500Y-57166900D01*
X18137461Y-57147215D01*
X18091706Y-57094411D01*
X18080500Y-57042900D01*
X18080500Y-56901456D01*
X18042052Y-56708170D01*
X18042051Y-56708169D01*
X18042051Y-56708165D01*
X18041549Y-56706953D01*
X17966635Y-56526092D01*
X17966628Y-56526079D01*
X17857139Y-56362218D01*
X17857136Y-56362214D01*
X17717782Y-56222860D01*
X17674719Y-56194087D01*
X17629914Y-56140475D01*
X17621207Y-56071150D01*
X17651361Y-56008123D01*
X17655910Y-56003323D01*
X19531906Y-54127328D01*
X19531911Y-54127324D01*
X19542114Y-54117120D01*
X19542116Y-54117120D01*
X19653920Y-54005316D01*
X19725753Y-53880897D01*
X19732977Y-53868385D01*
X19773901Y-53715657D01*
X19773901Y-53557543D01*
X19773901Y-53549948D01*
X19773900Y-53549930D01*
X19773900Y-41229353D01*
X20671000Y-41229353D01*
X20671000Y-41387046D01*
X20701761Y-41541689D01*
X20701764Y-41541701D01*
X20762102Y-41687372D01*
X20762109Y-41687385D01*
X20849710Y-41818488D01*
X20849713Y-41818492D01*
X20961207Y-41929986D01*
X20961211Y-41929989D01*
X21092314Y-42017590D01*
X21092327Y-42017597D01*
X21237998Y-42077935D01*
X21238003Y-42077937D01*
X21392653Y-42108699D01*
X21392656Y-42108700D01*
X21392658Y-42108700D01*
X21550344Y-42108700D01*
X21550345Y-42108699D01*
X21704997Y-42077937D01*
X21850679Y-42017594D01*
X21981789Y-41929989D01*
X22093289Y-41818489D01*
X22180894Y-41687379D01*
X22187642Y-41671089D01*
X22202099Y-41636185D01*
X22241237Y-41541697D01*
X22272000Y-41387042D01*
X22272000Y-41229358D01*
X22272000Y-41229355D01*
X22271999Y-41229353D01*
X22261591Y-41177031D01*
X22241237Y-41074703D01*
X22224041Y-41033187D01*
X22180897Y-40929027D01*
X22180890Y-40929014D01*
X22093289Y-40797911D01*
X22093286Y-40797907D01*
X21981792Y-40686413D01*
X21981788Y-40686410D01*
X21850685Y-40598809D01*
X21850672Y-40598802D01*
X21705001Y-40538464D01*
X21704989Y-40538461D01*
X21550345Y-40507700D01*
X21550342Y-40507700D01*
X21392658Y-40507700D01*
X21392655Y-40507700D01*
X21238010Y-40538461D01*
X21237998Y-40538464D01*
X21092327Y-40598802D01*
X21092314Y-40598809D01*
X20961211Y-40686410D01*
X20961207Y-40686413D01*
X20849713Y-40797907D01*
X20849710Y-40797911D01*
X20762109Y-40929014D01*
X20762102Y-40929027D01*
X20701764Y-41074698D01*
X20701761Y-41074710D01*
X20671000Y-41229353D01*
X19773900Y-41229353D01*
X19773900Y-35566253D01*
X20809700Y-35566253D01*
X20809700Y-35723946D01*
X20840461Y-35878589D01*
X20840464Y-35878601D01*
X20900802Y-36024272D01*
X20900809Y-36024285D01*
X20988410Y-36155388D01*
X20988413Y-36155392D01*
X21099907Y-36266886D01*
X21099911Y-36266889D01*
X21231014Y-36354490D01*
X21231027Y-36354497D01*
X21376698Y-36414835D01*
X21376703Y-36414837D01*
X21531353Y-36445599D01*
X21531356Y-36445600D01*
X21531358Y-36445600D01*
X21689044Y-36445600D01*
X21689045Y-36445599D01*
X21843697Y-36414837D01*
X21989379Y-36354494D01*
X22120489Y-36266889D01*
X22231989Y-36155389D01*
X22319594Y-36024279D01*
X22323071Y-36015886D01*
X22333267Y-35991266D01*
X22379937Y-35878597D01*
X22410700Y-35723942D01*
X22410700Y-35566258D01*
X22410700Y-35566255D01*
X22410699Y-35566253D01*
X22401580Y-35520411D01*
X22379937Y-35411603D01*
X22378076Y-35407111D01*
X22319597Y-35265927D01*
X22319590Y-35265914D01*
X22231989Y-35134811D01*
X22231986Y-35134807D01*
X22120492Y-35023313D01*
X22120488Y-35023310D01*
X21989385Y-34935709D01*
X21989372Y-34935702D01*
X21843701Y-34875364D01*
X21843689Y-34875361D01*
X21689045Y-34844600D01*
X21689042Y-34844600D01*
X21531358Y-34844600D01*
X21531355Y-34844600D01*
X21376710Y-34875361D01*
X21376698Y-34875364D01*
X21231027Y-34935702D01*
X21231014Y-34935709D01*
X21099911Y-35023310D01*
X21099907Y-35023313D01*
X20988413Y-35134807D01*
X20988410Y-35134811D01*
X20900809Y-35265914D01*
X20900802Y-35265927D01*
X20840464Y-35411598D01*
X20840461Y-35411610D01*
X20809700Y-35566253D01*
X19773900Y-35566253D01*
X19773900Y-27592165D01*
X19793585Y-27525126D01*
X19794798Y-27523274D01*
X19829737Y-27470985D01*
X19882794Y-27391579D01*
X19943137Y-27245897D01*
X19973900Y-27091242D01*
X19973900Y-26933558D01*
X19973900Y-26933555D01*
X19973899Y-26933553D01*
X19950354Y-26815185D01*
X19943137Y-26778903D01*
X19915685Y-26712627D01*
X19882797Y-26633227D01*
X19882790Y-26633214D01*
X19795189Y-26502111D01*
X19795186Y-26502107D01*
X19683692Y-26390613D01*
X19683688Y-26390610D01*
X19552585Y-26303009D01*
X19552572Y-26303002D01*
X19406901Y-26242664D01*
X19406891Y-26242661D01*
X19295608Y-26220525D01*
X19233697Y-26188140D01*
X19199123Y-26127424D01*
X19195800Y-26098908D01*
X19195800Y-19669465D01*
X19215485Y-19602426D01*
X19216698Y-19600574D01*
X19268703Y-19522744D01*
X19304694Y-19468879D01*
X19311348Y-19452816D01*
X19332600Y-19401508D01*
X19365037Y-19323197D01*
X19395800Y-19168542D01*
X19395800Y-19010858D01*
X19395800Y-19010855D01*
X19395799Y-19010853D01*
X19385022Y-18956672D01*
X19365037Y-18856203D01*
X19321171Y-18750300D01*
X19304697Y-18710527D01*
X19304690Y-18710514D01*
X19217089Y-18579411D01*
X19217086Y-18579407D01*
X19105592Y-18467913D01*
X19105588Y-18467910D01*
X18974485Y-18380309D01*
X18974472Y-18380302D01*
X18828801Y-18319964D01*
X18828789Y-18319961D01*
X18674145Y-18289200D01*
X18674142Y-18289200D01*
X18516458Y-18289200D01*
X18516455Y-18289200D01*
X18361810Y-18319961D01*
X18361798Y-18319964D01*
X18216127Y-18380302D01*
X18216114Y-18380309D01*
X18085011Y-18467910D01*
X18085007Y-18467913D01*
X17973513Y-18579407D01*
X17973510Y-18579411D01*
X17885909Y-18710514D01*
X17885902Y-18710527D01*
X17825564Y-18856198D01*
X17825561Y-18856210D01*
X17794800Y-19010853D01*
X17794800Y-19168546D01*
X17825561Y-19323189D01*
X17825564Y-19323201D01*
X17885902Y-19468872D01*
X17885909Y-19468885D01*
X17973902Y-19600574D01*
X17994780Y-19667251D01*
X17994800Y-19669465D01*
X17994800Y-25535517D01*
X17975115Y-25602556D01*
X17922311Y-25648311D01*
X17853153Y-25658255D01*
X17846609Y-25657134D01*
X17737846Y-25635500D01*
X17737842Y-25635500D01*
X17580158Y-25635500D01*
X17580155Y-25635500D01*
X17425510Y-25666261D01*
X17425498Y-25666264D01*
X17279827Y-25726602D01*
X17279814Y-25726609D01*
X17148711Y-25814210D01*
X17148707Y-25814213D01*
X17037213Y-25925707D01*
X17037210Y-25925711D01*
X16949609Y-26056814D01*
X16949602Y-26056827D01*
X16889264Y-26202498D01*
X16889261Y-26202510D01*
X16858500Y-26357153D01*
X16858500Y-26514846D01*
X16889261Y-26669489D01*
X16889264Y-26669501D01*
X16949602Y-26815172D01*
X16949609Y-26815185D01*
X17037602Y-26946874D01*
X17058480Y-27013551D01*
X17058500Y-27015765D01*
X17058500Y-44614674D01*
X17038815Y-44681713D01*
X16986011Y-44727468D01*
X16916853Y-44737412D01*
X16853297Y-44708387D01*
X16815523Y-44649609D01*
X16814725Y-44646768D01*
X16811498Y-44634723D01*
X16790742Y-44557261D01*
X16682863Y-44296817D01*
X16682861Y-44296814D01*
X16682859Y-44296809D01*
X16541916Y-44052690D01*
X16541912Y-44052683D01*
X16370300Y-43829035D01*
X16370298Y-43829033D01*
X16370295Y-43829029D01*
X16170970Y-43629704D01*
X16170965Y-43629700D01*
X15947317Y-43458088D01*
X15947311Y-43458084D01*
X15947309Y-43458083D01*
X15703190Y-43317140D01*
X15703179Y-43317135D01*
X15442743Y-43209259D01*
X15170439Y-43136295D01*
X14890958Y-43099500D01*
X14890951Y-43099500D01*
X14609049Y-43099500D01*
X14609041Y-43099500D01*
X14329560Y-43136295D01*
X14057256Y-43209259D01*
X13796820Y-43317135D01*
X13796809Y-43317140D01*
X13552690Y-43458083D01*
X13552682Y-43458089D01*
X13329029Y-43629704D01*
X13129704Y-43829029D01*
X12958089Y-44052682D01*
X12958083Y-44052690D01*
X12817140Y-44296809D01*
X12817135Y-44296820D01*
X12709259Y-44557256D01*
X12636295Y-44829560D01*
X12599500Y-45109041D01*
X12599500Y-45390958D01*
X12636295Y-45670439D01*
X12709259Y-45942743D01*
X12817135Y-46203179D01*
X12817140Y-46203190D01*
X12958083Y-46447309D01*
X12958088Y-46447317D01*
X13105660Y-46639635D01*
X13129704Y-46670970D01*
X13329029Y-46870295D01*
X13329033Y-46870298D01*
X13329035Y-46870300D01*
X13552683Y-47041912D01*
X13552690Y-47041916D01*
X13796809Y-47182859D01*
X13796814Y-47182861D01*
X13796817Y-47182863D01*
X14057261Y-47290742D01*
X14329558Y-47363704D01*
X14609049Y-47400500D01*
X14609056Y-47400500D01*
X14890944Y-47400500D01*
X14890951Y-47400500D01*
X15170442Y-47363704D01*
X15442739Y-47290742D01*
X15703183Y-47182863D01*
X15947317Y-47041912D01*
X16170965Y-46870300D01*
X16370300Y-46670965D01*
X16541912Y-46447317D01*
X16682863Y-46203183D01*
X16790742Y-45942739D01*
X16814725Y-45853230D01*
X16851090Y-45793571D01*
X16913937Y-45763042D01*
X16983312Y-45771337D01*
X17037190Y-45815822D01*
X17058465Y-45882374D01*
X17058500Y-45885325D01*
X17058500Y-50289202D01*
X17038815Y-50356241D01*
X17022181Y-50376883D01*
X11519481Y-55879582D01*
X11519479Y-55879584D01*
X11494624Y-55922637D01*
X11494623Y-55922638D01*
X11481620Y-55945160D01*
X11431053Y-55993375D01*
X11399741Y-56002775D01*
X11400061Y-56004127D01*
X11392513Y-56005910D01*
X11257671Y-56056202D01*
X11257664Y-56056206D01*
X11142455Y-56142452D01*
X11142452Y-56142455D01*
X11056206Y-56257664D01*
X11056202Y-56257671D01*
X11005908Y-56392517D01*
X10999501Y-56452116D01*
X10999500Y-56452135D01*
X400000Y-56452135D01*
X400000Y-37525411D01*
X5611800Y-37525411D01*
X5611800Y-42143795D01*
X5646403Y-42317758D01*
X5646406Y-42317767D01*
X5714283Y-42481640D01*
X5714290Y-42481653D01*
X5812835Y-42629134D01*
X5812838Y-42629138D01*
X5938261Y-42754561D01*
X5938265Y-42754564D01*
X6085746Y-42853109D01*
X6085759Y-42853116D01*
X6208663Y-42904023D01*
X6249634Y-42920994D01*
X6249636Y-42920994D01*
X6249641Y-42920996D01*
X6423604Y-42955599D01*
X6423607Y-42955600D01*
X6423609Y-42955600D01*
X6600993Y-42955600D01*
X6600994Y-42955599D01*
X6658982Y-42944064D01*
X6774958Y-42920996D01*
X6774961Y-42920994D01*
X6774966Y-42920994D01*
X6938847Y-42853113D01*
X7086335Y-42754564D01*
X7211764Y-42629135D01*
X7310313Y-42481647D01*
X7378194Y-42317766D01*
X7382058Y-42298344D01*
X7412799Y-42143795D01*
X7412800Y-42143793D01*
X7412800Y-41081953D01*
X9166200Y-41081953D01*
X9166200Y-41239646D01*
X9196961Y-41394289D01*
X9196964Y-41394301D01*
X9257302Y-41539972D01*
X9257309Y-41539985D01*
X9344910Y-41671088D01*
X9344913Y-41671092D01*
X9456407Y-41782586D01*
X9456411Y-41782589D01*
X9587514Y-41870190D01*
X9587527Y-41870197D01*
X9720615Y-41925323D01*
X9733203Y-41930537D01*
X9852456Y-41954258D01*
X9887853Y-41961299D01*
X9887856Y-41961300D01*
X9887858Y-41961300D01*
X10045544Y-41961300D01*
X10045545Y-41961299D01*
X10200197Y-41930537D01*
X10345879Y-41870194D01*
X10476989Y-41782589D01*
X10588489Y-41671089D01*
X10676094Y-41539979D01*
X10736437Y-41394297D01*
X10767200Y-41239642D01*
X10767200Y-41081958D01*
X10767200Y-41081955D01*
X10767199Y-41081953D01*
X10736780Y-40929027D01*
X10736437Y-40927303D01*
X10722623Y-40893953D01*
X10676097Y-40781627D01*
X10676090Y-40781614D01*
X10588489Y-40650511D01*
X10588486Y-40650507D01*
X10476992Y-40539013D01*
X10476988Y-40539010D01*
X10345885Y-40451409D01*
X10345872Y-40451402D01*
X10200201Y-40391064D01*
X10200189Y-40391061D01*
X10045545Y-40360300D01*
X10045542Y-40360300D01*
X9887858Y-40360300D01*
X9887855Y-40360300D01*
X9733210Y-40391061D01*
X9733198Y-40391064D01*
X9587527Y-40451402D01*
X9587514Y-40451409D01*
X9456411Y-40539010D01*
X9456407Y-40539013D01*
X9344913Y-40650507D01*
X9344910Y-40650511D01*
X9257309Y-40781614D01*
X9257302Y-40781627D01*
X9196964Y-40927298D01*
X9196961Y-40927310D01*
X9166200Y-41081953D01*
X7412800Y-41081953D01*
X7412800Y-38038462D01*
X7432485Y-37971423D01*
X7449119Y-37950781D01*
X9634459Y-35765441D01*
X9634464Y-35765436D01*
X9733012Y-35617947D01*
X9800895Y-35454066D01*
X9835500Y-35280092D01*
X9835500Y-35102708D01*
X9800895Y-34928734D01*
X9736101Y-34772311D01*
X9733013Y-34764856D01*
X9733012Y-34764854D01*
X9634464Y-34617364D01*
X9634462Y-34617362D01*
X9634460Y-34617359D01*
X9509040Y-34491939D01*
X9407902Y-34424362D01*
X9361546Y-34393388D01*
X9361545Y-34393387D01*
X9361543Y-34393386D01*
X9197666Y-34325505D01*
X9197658Y-34325503D01*
X9023696Y-34290900D01*
X9023692Y-34290900D01*
X8846308Y-34290900D01*
X8846303Y-34290900D01*
X8672341Y-34325503D01*
X8672333Y-34325505D01*
X8508451Y-34393388D01*
X8360965Y-34491934D01*
X8360958Y-34491940D01*
X5812837Y-37040061D01*
X5794261Y-37067863D01*
X5794257Y-37067868D01*
X5791961Y-37071306D01*
X5714287Y-37187553D01*
X5688988Y-37248631D01*
X5685906Y-37256069D01*
X5685906Y-37256071D01*
X5646405Y-37351433D01*
X5646403Y-37351441D01*
X5614984Y-37509394D01*
X5614985Y-37509395D01*
X5611800Y-37525411D01*
X400000Y-37525411D01*
X400000Y-28378153D01*
X5981700Y-28378153D01*
X5981700Y-28535846D01*
X6012461Y-28690489D01*
X6012464Y-28690501D01*
X6072802Y-28836172D01*
X6072809Y-28836185D01*
X6160410Y-28967288D01*
X6160413Y-28967292D01*
X6271907Y-29078786D01*
X6271911Y-29078789D01*
X6403014Y-29166390D01*
X6403027Y-29166397D01*
X6548698Y-29226735D01*
X6548703Y-29226737D01*
X6703353Y-29257499D01*
X6703356Y-29257500D01*
X6703358Y-29257500D01*
X6861044Y-29257500D01*
X6861045Y-29257499D01*
X7015697Y-29226737D01*
X7161379Y-29166394D01*
X7292489Y-29078789D01*
X7403989Y-28967289D01*
X7491594Y-28836179D01*
X7551937Y-28690497D01*
X7582700Y-28535842D01*
X7582700Y-28378158D01*
X7582700Y-28378155D01*
X7582699Y-28378153D01*
X7562079Y-28274489D01*
X7551937Y-28223503D01*
X7551935Y-28223498D01*
X7491597Y-28077827D01*
X7491590Y-28077814D01*
X7403989Y-27946711D01*
X7403986Y-27946707D01*
X7292492Y-27835213D01*
X7292488Y-27835210D01*
X7161385Y-27747609D01*
X7161372Y-27747602D01*
X7015701Y-27687264D01*
X7015689Y-27687261D01*
X6861045Y-27656500D01*
X6861042Y-27656500D01*
X6703358Y-27656500D01*
X6703355Y-27656500D01*
X6548710Y-27687261D01*
X6548698Y-27687264D01*
X6403027Y-27747602D01*
X6403014Y-27747609D01*
X6271911Y-27835210D01*
X6271907Y-27835213D01*
X6160413Y-27946707D01*
X6160410Y-27946711D01*
X6072809Y-28077814D01*
X6072802Y-28077827D01*
X6012464Y-28223498D01*
X6012461Y-28223510D01*
X5981700Y-28378153D01*
X400000Y-28378153D01*
X400000Y-25274653D01*
X4849500Y-25274653D01*
X4849500Y-25432346D01*
X4880261Y-25586989D01*
X4880264Y-25587001D01*
X4940602Y-25732672D01*
X4940609Y-25732685D01*
X5028210Y-25863788D01*
X5028213Y-25863792D01*
X5139707Y-25975286D01*
X5139711Y-25975289D01*
X5270814Y-26062890D01*
X5270827Y-26062897D01*
X5416498Y-26123235D01*
X5416503Y-26123237D01*
X5571153Y-26153999D01*
X5571156Y-26154000D01*
X5571158Y-26154000D01*
X5728844Y-26154000D01*
X5728845Y-26153999D01*
X5883497Y-26123237D01*
X6029179Y-26062894D01*
X6160289Y-25975289D01*
X6271789Y-25863789D01*
X6359394Y-25732679D01*
X6361910Y-25726606D01*
X6390221Y-25658255D01*
X6419737Y-25586997D01*
X6450500Y-25432342D01*
X6450500Y-25274658D01*
X6450500Y-25274655D01*
X6450499Y-25274653D01*
X6419738Y-25120010D01*
X6419737Y-25120003D01*
X6419735Y-25119998D01*
X6359397Y-24974327D01*
X6359390Y-24974314D01*
X6271789Y-24843211D01*
X6271786Y-24843207D01*
X6160292Y-24731713D01*
X6160288Y-24731710D01*
X6029185Y-24644109D01*
X6029172Y-24644102D01*
X5883501Y-24583764D01*
X5883489Y-24583761D01*
X5728845Y-24553000D01*
X5728842Y-24553000D01*
X5571158Y-24553000D01*
X5571155Y-24553000D01*
X5416510Y-24583761D01*
X5416498Y-24583764D01*
X5270827Y-24644102D01*
X5270814Y-24644109D01*
X5139711Y-24731710D01*
X5139707Y-24731713D01*
X5028213Y-24843207D01*
X5028210Y-24843211D01*
X4940609Y-24974314D01*
X4940602Y-24974327D01*
X4880264Y-25119998D01*
X4880261Y-25120010D01*
X4849500Y-25274653D01*
X400000Y-25274653D01*
X400000Y-23255653D01*
X5951800Y-23255653D01*
X5951800Y-23413346D01*
X5982561Y-23567989D01*
X5982564Y-23568001D01*
X6042902Y-23713672D01*
X6042909Y-23713685D01*
X6130510Y-23844788D01*
X6130513Y-23844792D01*
X6242007Y-23956286D01*
X6242011Y-23956289D01*
X6373114Y-24043890D01*
X6373127Y-24043897D01*
X6491406Y-24092889D01*
X6518803Y-24104237D01*
X6673453Y-24134999D01*
X6673456Y-24135000D01*
X6673458Y-24135000D01*
X6831144Y-24135000D01*
X6831145Y-24134999D01*
X6985797Y-24104237D01*
X7131479Y-24043894D01*
X7262589Y-23956289D01*
X7374089Y-23844789D01*
X7461694Y-23713679D01*
X7522037Y-23567997D01*
X7552800Y-23413342D01*
X7552800Y-23255658D01*
X7552800Y-23255655D01*
X7552799Y-23255653D01*
X7546500Y-23223988D01*
X7522037Y-23101003D01*
X7522035Y-23100998D01*
X7461697Y-22955327D01*
X7461690Y-22955314D01*
X7374089Y-22824211D01*
X7374086Y-22824207D01*
X7262592Y-22712713D01*
X7262588Y-22712710D01*
X7131485Y-22625109D01*
X7131472Y-22625102D01*
X6985801Y-22564764D01*
X6985789Y-22564761D01*
X6831145Y-22534000D01*
X6831142Y-22534000D01*
X6673458Y-22534000D01*
X6673455Y-22534000D01*
X6518810Y-22564761D01*
X6518798Y-22564764D01*
X6373127Y-22625102D01*
X6373114Y-22625109D01*
X6242011Y-22712710D01*
X6242007Y-22712713D01*
X6130513Y-22824207D01*
X6130510Y-22824211D01*
X6042909Y-22955314D01*
X6042902Y-22955327D01*
X5982564Y-23100998D01*
X5982561Y-23101010D01*
X5951800Y-23255653D01*
X400000Y-23255653D01*
X400000Y-15044853D01*
X5456500Y-15044853D01*
X5456500Y-15202546D01*
X5487261Y-15357189D01*
X5487264Y-15357201D01*
X5547602Y-15502872D01*
X5547609Y-15502885D01*
X5635210Y-15633988D01*
X5635212Y-15633991D01*
X5651388Y-15650166D01*
X5684875Y-15711488D01*
X5679892Y-15781180D01*
X5654417Y-15820824D01*
X5654876Y-15821201D01*
X5651649Y-15825132D01*
X5651400Y-15825521D01*
X5651013Y-15825907D01*
X5651010Y-15825911D01*
X5563409Y-15957014D01*
X5563402Y-15957027D01*
X5503064Y-16102698D01*
X5503061Y-16102710D01*
X5472300Y-16257353D01*
X5472300Y-16415046D01*
X5503061Y-16569689D01*
X5503064Y-16569701D01*
X5563402Y-16715372D01*
X5563409Y-16715385D01*
X5651010Y-16846488D01*
X5651013Y-16846492D01*
X5762507Y-16957986D01*
X5762511Y-16957989D01*
X5893614Y-17045590D01*
X5893627Y-17045597D01*
X6020624Y-17098200D01*
X6039303Y-17105937D01*
X6155062Y-17128963D01*
X6193953Y-17136699D01*
X6193956Y-17136700D01*
X6193958Y-17136700D01*
X6351644Y-17136700D01*
X6351645Y-17136699D01*
X6506297Y-17105937D01*
X6536214Y-17093544D01*
X6605682Y-17086076D01*
X6668161Y-17117351D01*
X6703814Y-17177439D01*
X6701321Y-17247265D01*
X6661473Y-17304657D01*
X6652558Y-17311207D01*
X6627413Y-17328008D01*
X6627407Y-17328013D01*
X6515913Y-17439507D01*
X6515910Y-17439511D01*
X6428309Y-17570614D01*
X6428302Y-17570627D01*
X6367964Y-17716298D01*
X6367961Y-17716310D01*
X6337200Y-17870953D01*
X6337200Y-18028646D01*
X6367961Y-18183289D01*
X6367964Y-18183301D01*
X6428302Y-18328972D01*
X6428309Y-18328985D01*
X6515910Y-18460088D01*
X6515913Y-18460092D01*
X6627407Y-18571586D01*
X6627411Y-18571589D01*
X6758514Y-18659190D01*
X6758527Y-18659197D01*
X6904198Y-18719535D01*
X6904203Y-18719537D01*
X7058853Y-18750299D01*
X7058856Y-18750300D01*
X7058858Y-18750300D01*
X7216544Y-18750300D01*
X7216545Y-18750299D01*
X7371197Y-18719537D01*
X7516879Y-18659194D01*
X7647989Y-18571589D01*
X7759489Y-18460089D01*
X7847094Y-18328979D01*
X7907437Y-18183297D01*
X7938200Y-18028642D01*
X7938200Y-17870958D01*
X7938200Y-17870955D01*
X7938199Y-17870953D01*
X7928015Y-17819755D01*
X7907437Y-17716303D01*
X7899566Y-17697300D01*
X7847097Y-17570627D01*
X7847090Y-17570614D01*
X7759489Y-17439511D01*
X7759486Y-17439507D01*
X7647992Y-17328013D01*
X7647988Y-17328010D01*
X7516885Y-17240409D01*
X7516872Y-17240402D01*
X7371201Y-17180064D01*
X7371189Y-17180061D01*
X7216545Y-17149300D01*
X7216542Y-17149300D01*
X7058858Y-17149300D01*
X7058855Y-17149300D01*
X6904210Y-17180061D01*
X6904194Y-17180065D01*
X6874282Y-17192455D01*
X6804813Y-17199922D01*
X6742335Y-17168645D01*
X6706684Y-17108555D01*
X6709180Y-17038730D01*
X6749030Y-16981339D01*
X6757934Y-16974796D01*
X6783089Y-16957989D01*
X6894589Y-16846489D01*
X6982194Y-16715379D01*
X7042537Y-16569697D01*
X7073300Y-16415042D01*
X7073300Y-16257358D01*
X7073300Y-16257355D01*
X7073299Y-16257353D01*
X7042538Y-16102710D01*
X7042537Y-16102703D01*
X7042535Y-16102698D01*
X6982197Y-15957027D01*
X6982190Y-15957014D01*
X6894589Y-15825911D01*
X6894587Y-15825908D01*
X6878411Y-15809733D01*
X6844924Y-15748411D01*
X6849907Y-15678719D01*
X6875385Y-15639077D01*
X6874924Y-15638699D01*
X6878173Y-15634739D01*
X6878416Y-15634361D01*
X6878789Y-15633989D01*
X6966394Y-15502879D01*
X7026737Y-15357197D01*
X7057500Y-15202542D01*
X7057500Y-15044858D01*
X7057500Y-15044855D01*
X7057499Y-15044853D01*
X7040667Y-14960235D01*
X7026737Y-14890203D01*
X7019487Y-14872700D01*
X6966397Y-14744527D01*
X6966390Y-14744514D01*
X6878789Y-14613411D01*
X6878786Y-14613407D01*
X6767292Y-14501913D01*
X6767288Y-14501910D01*
X6636185Y-14414309D01*
X6636172Y-14414302D01*
X6490501Y-14353964D01*
X6490489Y-14353961D01*
X6335845Y-14323200D01*
X6335842Y-14323200D01*
X6178158Y-14323200D01*
X6178155Y-14323200D01*
X6023510Y-14353961D01*
X6023498Y-14353964D01*
X5877827Y-14414302D01*
X5877814Y-14414309D01*
X5746711Y-14501910D01*
X5746707Y-14501913D01*
X5635213Y-14613407D01*
X5635210Y-14613411D01*
X5547609Y-14744514D01*
X5547602Y-14744527D01*
X5487264Y-14890198D01*
X5487261Y-14890210D01*
X5456500Y-15044853D01*
X400000Y-15044853D01*
X400000Y-3624983D01*
X924500Y-3624983D01*
X924500Y-6375001D01*
X924501Y-6375018D01*
X935000Y-6477796D01*
X935001Y-6477799D01*
X980602Y-6615411D01*
X990186Y-6644334D01*
X1082288Y-6793656D01*
X1206344Y-6917712D01*
X1355666Y-7009814D01*
X1522203Y-7064999D01*
X1624991Y-7075500D01*
X4375008Y-7075499D01*
X4477797Y-7064999D01*
X4539311Y-7044614D01*
X4609137Y-7042213D01*
X4642866Y-7056449D01*
X9439637Y-9981309D01*
X10240055Y-10469369D01*
X10287045Y-10521077D01*
X10299500Y-10575240D01*
X10299500Y-12810570D01*
X10279815Y-12877609D01*
X10227011Y-12923364D01*
X10157853Y-12933308D01*
X10106610Y-12913673D01*
X10053383Y-12878108D01*
X10053372Y-12878102D01*
X9907701Y-12817764D01*
X9907689Y-12817761D01*
X9753045Y-12787000D01*
X9753042Y-12787000D01*
X9595358Y-12787000D01*
X9595355Y-12787000D01*
X9440710Y-12817761D01*
X9440698Y-12817764D01*
X9295027Y-12878102D01*
X9295014Y-12878109D01*
X9163911Y-12965710D01*
X9163907Y-12965713D01*
X9052413Y-13077207D01*
X9052410Y-13077211D01*
X8964809Y-13208314D01*
X8964802Y-13208327D01*
X8904464Y-13353998D01*
X8904461Y-13354010D01*
X8873700Y-13508653D01*
X8873700Y-13666346D01*
X8904461Y-13820989D01*
X8904464Y-13821001D01*
X8964802Y-13966672D01*
X8964809Y-13966685D01*
X9052410Y-14097788D01*
X9052413Y-14097792D01*
X9163907Y-14209286D01*
X9163911Y-14209289D01*
X9295014Y-14296890D01*
X9295027Y-14296897D01*
X9418931Y-14348219D01*
X9440703Y-14357237D01*
X9595353Y-14387999D01*
X9595356Y-14388000D01*
X9595358Y-14388000D01*
X9753044Y-14388000D01*
X9753045Y-14387999D01*
X9907697Y-14357237D01*
X10053379Y-14296894D01*
X10106609Y-14261327D01*
X10173286Y-14240449D01*
X10240666Y-14258933D01*
X10287357Y-14310912D01*
X10299500Y-14364429D01*
X10299500Y-26288696D01*
X10334103Y-26462659D01*
X10334104Y-26462663D01*
X10334105Y-26462666D01*
X10355922Y-26515335D01*
X10401987Y-26626547D01*
X10453922Y-26704273D01*
X10457688Y-26709909D01*
X10457690Y-26709913D01*
X10500537Y-26774038D01*
X10500538Y-26774039D01*
X14063181Y-30336680D01*
X14096666Y-30398003D01*
X14099500Y-30424361D01*
X14099500Y-32314486D01*
X14079815Y-32381525D01*
X14027011Y-32427280D01*
X13957853Y-32437224D01*
X13894297Y-32408199D01*
X13872398Y-32383377D01*
X13799789Y-32274711D01*
X13799786Y-32274707D01*
X13688292Y-32163213D01*
X13688288Y-32163210D01*
X13557185Y-32075609D01*
X13557172Y-32075602D01*
X13411501Y-32015264D01*
X13411489Y-32015261D01*
X13256845Y-31984500D01*
X13256842Y-31984500D01*
X13099158Y-31984500D01*
X13099155Y-31984500D01*
X12944510Y-32015261D01*
X12944498Y-32015264D01*
X12798827Y-32075602D01*
X12798814Y-32075609D01*
X12667711Y-32163210D01*
X12667707Y-32163213D01*
X12556213Y-32274707D01*
X12556210Y-32274711D01*
X12468609Y-32405814D01*
X12468602Y-32405827D01*
X12408264Y-32551498D01*
X12408261Y-32551510D01*
X12377500Y-32706153D01*
X12377500Y-32863846D01*
X12408261Y-33018489D01*
X12408264Y-33018501D01*
X12468602Y-33164172D01*
X12468609Y-33164185D01*
X12556210Y-33295288D01*
X12556213Y-33295292D01*
X12667707Y-33406786D01*
X12667711Y-33406789D01*
X12798814Y-33494390D01*
X12798827Y-33494397D01*
X12903828Y-33537889D01*
X12944503Y-33554737D01*
X13099153Y-33585499D01*
X13099156Y-33585500D01*
X13099158Y-33585500D01*
X13256844Y-33585500D01*
X13256845Y-33585499D01*
X13411497Y-33554737D01*
X13557179Y-33494394D01*
X13688289Y-33406789D01*
X13799789Y-33295289D01*
X13871015Y-33188692D01*
X13880768Y-33174096D01*
X13934380Y-33129290D01*
X14003705Y-33120583D01*
X14066732Y-33150737D01*
X14103452Y-33210180D01*
X14105487Y-33218795D01*
X14134103Y-33362659D01*
X14134104Y-33362663D01*
X14134105Y-33362666D01*
X14166869Y-33441763D01*
X14201987Y-33526547D01*
X14254726Y-33605476D01*
X14258059Y-33610464D01*
X14258060Y-33610466D01*
X14300534Y-33674034D01*
X14300538Y-33674039D01*
X14963181Y-34336681D01*
X14996666Y-34398004D01*
X14999500Y-34424362D01*
X14999500Y-37453695D01*
X15034103Y-37627658D01*
X15034106Y-37627667D01*
X15101983Y-37791540D01*
X15101990Y-37791553D01*
X15200535Y-37939034D01*
X15200538Y-37939038D01*
X15325961Y-38064461D01*
X15325965Y-38064464D01*
X15473446Y-38163009D01*
X15473459Y-38163016D01*
X15573366Y-38204398D01*
X15637334Y-38230894D01*
X15637336Y-38230894D01*
X15637341Y-38230896D01*
X15811304Y-38265499D01*
X15811307Y-38265500D01*
X15811309Y-38265500D01*
X15988693Y-38265500D01*
X15988694Y-38265499D01*
X16046682Y-38253964D01*
X16162658Y-38230896D01*
X16162661Y-38230894D01*
X16162666Y-38230894D01*
X16326547Y-38163013D01*
X16474035Y-38064464D01*
X16599464Y-37939035D01*
X16698013Y-37791547D01*
X16698405Y-37790602D01*
X16707958Y-37767535D01*
X16765894Y-37627666D01*
X16769658Y-37608747D01*
X16800499Y-37453695D01*
X16800500Y-37453693D01*
X16800500Y-33911307D01*
X16800499Y-33911303D01*
X16783655Y-33826621D01*
X16765895Y-33737334D01*
X16721044Y-33629056D01*
X16698013Y-33573453D01*
X16628540Y-33469480D01*
X16599464Y-33425964D01*
X16599462Y-33425961D01*
X15936819Y-32763318D01*
X15903334Y-32701995D01*
X15900500Y-32675637D01*
X15900500Y-29911309D01*
X15895420Y-29885768D01*
X15895420Y-29885767D01*
X15865896Y-29737341D01*
X15865895Y-29737334D01*
X15800339Y-29579071D01*
X15798695Y-29574474D01*
X15699465Y-29425966D01*
X15641713Y-29368214D01*
X15574035Y-29300536D01*
X12136819Y-25863319D01*
X12103334Y-25801996D01*
X12100500Y-25775638D01*
X12100500Y-14609041D01*
X12599500Y-14609041D01*
X12599500Y-14890958D01*
X12636295Y-15170439D01*
X12709259Y-15442743D01*
X12817135Y-15703179D01*
X12817140Y-15703190D01*
X12958083Y-15947309D01*
X12958088Y-15947317D01*
X13077326Y-16102710D01*
X13129704Y-16170970D01*
X13329029Y-16370295D01*
X13329033Y-16370298D01*
X13329035Y-16370300D01*
X13552683Y-16541912D01*
X13552690Y-16541916D01*
X13796809Y-16682859D01*
X13796814Y-16682861D01*
X13796817Y-16682863D01*
X14057261Y-16790742D01*
X14329558Y-16863704D01*
X14609049Y-16900500D01*
X14609056Y-16900500D01*
X14890944Y-16900500D01*
X14890951Y-16900500D01*
X15170442Y-16863704D01*
X15442739Y-16790742D01*
X15703183Y-16682863D01*
X15947317Y-16541912D01*
X16170965Y-16370300D01*
X16370300Y-16170965D01*
X16541912Y-15947317D01*
X16682863Y-15703183D01*
X16790742Y-15442739D01*
X16863704Y-15170442D01*
X16900500Y-14890951D01*
X16900500Y-14609049D01*
X16863704Y-14329558D01*
X16790742Y-14057261D01*
X16682863Y-13796817D01*
X16682861Y-13796814D01*
X16682859Y-13796809D01*
X16541916Y-13552690D01*
X16541912Y-13552683D01*
X16370300Y-13329035D01*
X16370298Y-13329033D01*
X16370295Y-13329029D01*
X16170970Y-13129704D01*
X16163333Y-13123844D01*
X15947317Y-12958088D01*
X15947311Y-12958084D01*
X15947309Y-12958083D01*
X15703190Y-12817140D01*
X15703179Y-12817135D01*
X15442743Y-12709259D01*
X15170439Y-12636295D01*
X14890958Y-12599500D01*
X14890951Y-12599500D01*
X14609049Y-12599500D01*
X14609041Y-12599500D01*
X14329560Y-12636295D01*
X14057256Y-12709259D01*
X13796820Y-12817135D01*
X13796809Y-12817140D01*
X13552690Y-12958083D01*
X13552684Y-12958087D01*
X13552683Y-12958088D01*
X13550262Y-12959946D01*
X13329029Y-13129704D01*
X13129704Y-13329029D01*
X13067025Y-13410714D01*
X12996297Y-13502889D01*
X12958089Y-13552682D01*
X12958083Y-13552690D01*
X12817140Y-13796809D01*
X12817135Y-13796820D01*
X12709259Y-14057256D01*
X12636295Y-14329560D01*
X12599500Y-14609041D01*
X12100500Y-14609041D01*
X12100500Y-10069868D01*
X12103404Y-10051267D01*
X12100500Y-9981309D01*
X12100500Y-9911309D01*
X12098706Y-9902292D01*
X12096429Y-9883234D01*
X12096047Y-9874039D01*
X12096047Y-9874037D01*
X12079550Y-9805991D01*
X12065894Y-9737334D01*
X12058690Y-9719942D01*
X12054255Y-9701647D01*
X12024803Y-9638131D01*
X11998013Y-9573453D01*
X11987556Y-9557804D01*
X11983509Y-9549075D01*
X11979638Y-9540727D01*
X11979637Y-9540726D01*
X11979636Y-9540723D01*
X11939853Y-9486223D01*
X11936931Y-9482040D01*
X11899464Y-9425965D01*
X11886152Y-9412653D01*
X11875054Y-9397449D01*
X11823542Y-9350043D01*
X11774035Y-9300536D01*
X11766377Y-9295418D01*
X11758377Y-9290073D01*
X11744531Y-9277330D01*
X11684772Y-9240891D01*
X11682630Y-9239460D01*
X11626548Y-9201987D01*
X11618034Y-9198460D01*
X11600942Y-9189774D01*
X5134944Y-5247092D01*
X5087954Y-5195384D01*
X5075499Y-5141221D01*
X5075499Y-3624998D01*
X5075498Y-3624981D01*
X5064999Y-3522203D01*
X5064997Y-3522195D01*
X5063965Y-3519080D01*
X5063961Y-3519070D01*
X5053053Y-3486153D01*
X21654300Y-3486153D01*
X21654300Y-3643846D01*
X21685061Y-3798489D01*
X21685064Y-3798501D01*
X21745402Y-3944172D01*
X21745409Y-3944185D01*
X21833010Y-4075288D01*
X21833013Y-4075292D01*
X21944507Y-4186786D01*
X21944511Y-4186789D01*
X22075614Y-4274390D01*
X22075627Y-4274397D01*
X22171340Y-4314042D01*
X22221303Y-4334737D01*
X22375953Y-4365499D01*
X22375956Y-4365500D01*
X22375958Y-4365500D01*
X22533644Y-4365500D01*
X22533645Y-4365499D01*
X22688297Y-4334737D01*
X22833979Y-4274394D01*
X22965089Y-4186789D01*
X23076589Y-4075289D01*
X23164194Y-3944179D01*
X23224537Y-3798497D01*
X23255300Y-3643842D01*
X23255300Y-3486158D01*
X23255300Y-3486155D01*
X23255299Y-3486153D01*
X23245064Y-3434700D01*
X23224537Y-3331503D01*
X23172694Y-3206342D01*
X23164197Y-3185827D01*
X23164190Y-3185814D01*
X23076589Y-3054711D01*
X23076586Y-3054707D01*
X22965092Y-2943213D01*
X22965088Y-2943210D01*
X22833985Y-2855609D01*
X22833972Y-2855602D01*
X22688301Y-2795264D01*
X22688289Y-2795261D01*
X22533645Y-2764500D01*
X22533642Y-2764500D01*
X22375958Y-2764500D01*
X22375955Y-2764500D01*
X22221310Y-2795261D01*
X22221298Y-2795264D01*
X22075627Y-2855602D01*
X22075614Y-2855609D01*
X21944511Y-2943210D01*
X21944507Y-2943213D01*
X21833013Y-3054707D01*
X21833010Y-3054711D01*
X21745409Y-3185814D01*
X21745402Y-3185827D01*
X21685064Y-3331498D01*
X21685061Y-3331510D01*
X21654300Y-3486153D01*
X5053053Y-3486153D01*
X5052632Y-3484884D01*
X5009814Y-3355666D01*
X4917712Y-3206344D01*
X4793656Y-3082288D01*
X4644334Y-2990186D01*
X4477797Y-2935001D01*
X4477795Y-2935000D01*
X4375010Y-2924500D01*
X1624998Y-2924500D01*
X1624981Y-2924501D01*
X1522203Y-2935000D01*
X1522200Y-2935001D01*
X1355668Y-2990185D01*
X1355663Y-2990187D01*
X1206342Y-3082289D01*
X1082289Y-3206342D01*
X990187Y-3355663D01*
X990186Y-3355666D01*
X935001Y-3522203D01*
X935001Y-3522204D01*
X935000Y-3522204D01*
X924500Y-3624983D01*
X400000Y-3624983D01*
X400000Y-2128134D01*
X409439Y-2080682D01*
X438390Y-2010787D01*
X520123Y-1813463D01*
X526145Y-1800957D01*
X668572Y-1543257D01*
X675950Y-1531514D01*
X846339Y-1291374D01*
X854977Y-1280542D01*
X1051179Y-1060991D01*
X1060991Y-1051179D01*
X1280542Y-854977D01*
X1291374Y-846339D01*
X1531514Y-675950D01*
X1543257Y-668572D01*
X1800957Y-526145D01*
X1813463Y-520123D01*
X1965953Y-456961D01*
X2080683Y-409439D01*
X2128135Y-400000D01*
X5876000Y-400000D01*
X5943039Y-419685D01*
G37*
%TD.AperFunction*%
%TD*%
M02*
