M48
; DRILL file KiCad 10.0.3 date 2026-07-22T15:09:06
; FORMAT={-:-/ absolute / metric / decimal}
; #@! TF.CreationDate,2026-07-22T15:09:06-04:00
; #@! TF.GenerationSoftware,Kicad,Pcbnew,10.0.3
; #@! TF.FileFunction,Plated,1,4,PTH
FMAT,2
METRIC
; #@! TA.AperFunction,Plated,PTH,ViaDrill
T1C0.200
; #@! TA.AperFunction,Plated,PTH,ViaDrill
T2C0.300
; #@! TA.AperFunction,Plated,PTH,ComponentDrill
T3C0.600
; #@! TA.AperFunction,Plated,PTH,ComponentDrill
T4C0.650
; #@! TA.AperFunction,Plated,PTH,ComponentDrill
T5C2.150
%
G90
G05
T1
X15.9Y-37.365
X15.9Y-38.2
X15.9Y-38.8
X28.8Y-32.5
X29.5Y-33.95
X33.0Y-31.9
X37.51Y-51.8
X42.2Y-51.8
X54.7Y-51.7
T2
X5.65Y-25.354
X6.257Y-15.124
X6.273Y-16.336
X6.512Y-42.055
X6.752Y-23.334
X6.782Y-28.457
X7.138Y-17.95
X8.935Y-35.191
X9.674Y-13.587
X9.967Y-41.161
X13.178Y-32.785
X17.659Y-26.436
X18.595Y-19.09
X19.173Y-27.012
X21.471Y-41.308
X21.61Y-35.645
X22.454Y-13.79
X22.455Y-3.565
X22.455Y-8.361
X23.178Y-19.207
X23.626Y-12.838
X24.109Y-18.578
X24.337Y-34.913
X25.508Y-23.302
X26.472Y-22.714
X27.224Y-53.647
X27.397Y-27.778
X27.755Y-22.024
X27.766Y-29.412
X28.852Y-27.764
X34.45Y-21.389
X35.0Y-27.092
X35.0Y-31.118
X35.0Y-35.394
X35.084Y-13.4
X35.084Y-14.717
X35.708Y-52.882
X35.852Y-4.235
X36.119Y-30.786
X36.604Y-23.982
X36.622Y-15.797
X36.73Y-20.241
X37.54Y-13.045
X37.822Y-48.688
X38.228Y-36.709
X38.534Y-32.916
X39.0Y-34.212
X39.419Y-24.132
X39.821Y-33.1
X39.933Y-46.986
X39.967Y-21.241
X39.98Y-11.853
X39.986Y-15.256
X40.139Y-40.973
X40.33Y-17.899
X40.746Y-37.663
X40.836Y-50.483
X40.842Y-7.126
X41.605Y-56.786
X41.617Y-20.859
X41.922Y-35.917
X43.469Y-36.031
X43.982Y-31.263
X44.234Y-23.774
X44.574Y-55.153
X45.275Y-38.438
X46.722Y-21.429
X46.809Y-38.5
X47.357Y-19.444
X47.625Y-47.749
X47.723Y-31.723
X48.308Y-55.211
X48.369Y-51.502
X49.149Y-49.404
X49.748Y-18.489
X49.95Y-39.238
X50.022Y-12.881
X50.34Y-38.553
X50.594Y-18.498
X50.789Y-30.395
X50.985Y-20.604
X50.99Y-52.311
X51.06Y-54.144
X51.511Y-45.587
X52.142Y-44.046
X52.154Y-29.471
X52.161Y-46.038
X52.37Y-52.353
X52.895Y-38.522
X52.937Y-29.747
X56.178Y-49.71
X56.291Y-45.97
X56.587Y-30.046
X56.975Y-51.468
X56.975Y-52.547
T4
X12.0Y-57.0
X13.27Y-57.0
X14.54Y-57.0
X15.81Y-57.0
X17.08Y-57.0
X18.35Y-57.0
X51.5Y-57.0
X52.77Y-57.0
X54.04Y-57.0
X55.31Y-57.0
X56.58Y-57.0
X57.85Y-57.0
T5
X3.0Y-5.0
X9.0Y-5.0
T3
X38.68Y-53.745G85X38.68Y-54.845
G05
X38.68Y-58.075G85X38.68Y-58.875
G05
X47.32Y-53.745G85X47.32Y-54.845
G05
X47.32Y-58.075G85X47.32Y-58.875
G05
M30
